<svg xmlns="http://www.w3.org/2000/svg" xmlns:xlink="http://www.w3.org/1999/xlink" width="1920" zoomAndPan="magnify" viewBox="0 0 1440 809.999993" height="1080" preserveAspectRatio="xMidYMid meet" version="1.2"><defs><clipPath id="a9a3f5163e"><path d="M 599.6875 287.933594 L 840.949219 287.933594 L 840.949219 458.550781 L 599.6875 458.550781 Z M 599.6875 287.933594 "/></clipPath><clipPath id="3a3b6a86a6"><path d="M 619.9375 287.933594 L 820.0625 287.933594 C 831.246094 287.933594 840.3125 297 840.3125 308.183594 L 840.3125 438.300781 C 840.3125 449.484375 831.246094 458.550781 820.0625 458.550781 L 619.9375 458.550781 C 608.753906 458.550781 599.6875 449.484375 599.6875 438.300781 L 599.6875 308.183594 C 599.6875 297 608.753906 287.933594 619.9375 287.933594 Z M 619.9375 287.933594 "/></clipPath><clipPath id="5b308fe799"><path d="M 0.6875 0.933594 L 241.480469 0.933594 L 241.480469 171.550781 L 0.6875 171.550781 Z M 0.6875 0.933594 "/></clipPath><clipPath id="66f50f7d3f"><path d="M 20.9375 0.933594 L 221.0625 0.933594 C 232.246094 0.933594 241.3125 10 241.3125 21.183594 L 241.3125 151.300781 C 241.3125 162.484375 232.246094 171.550781 221.0625 171.550781 L 20.9375 171.550781 C 9.753906 171.550781 0.6875 162.484375 0.6875 151.300781 L 0.6875 21.183594 C 0.6875 10 9.753906 0.933594 20.9375 0.933594 Z M 20.9375 0.933594 "/></clipPath><clipPath id="afe7a7bd2f"><rect x="0" width="242" y="0" height="172"/></clipPath><clipPath id="36315cb445"><path d="M 605.992188 294 L 833.992188 294 L 833.992188 452.195312 L 605.992188 452.195312 Z M 605.992188 294 "/></clipPath></defs><g id="637a424496"><g clip-rule="nonzero" clip-path="url(#a9a3f5163e)"><g clip-rule="nonzero" clip-path="url(#3a3b6a86a6)"><g transform="matrix(1,0,0,1,599,287)"><g clip-path="url(#afe7a7bd2f)"><g clip-rule="nonzero" clip-path="url(#5b308fe799)"><g clip-rule="nonzero" clip-path="url(#66f50f7d3f)"><path style=" stroke:none;fill-rule:nonzero;fill:#ead2a2;fill-opacity:1;" d="M 0.6875 0.933594 L 241.285156 0.933594 L 241.285156 171.550781 L 0.6875 171.550781 Z M 0.6875 0.933594 "/></g></g></g></g></g></g><g clip-rule="nonzero" clip-path="url(#36315cb445)"><path style=" stroke:none;fill-rule:nonzero;fill:#740000;fill-opacity:1;" d="M 621.882812 436.121094 L 615.394531 436.121094 L 615.394531 442.644531 L 621.882812 442.644531 Z M 615.394531 434.109375 L 621.882812 434.109375 L 621.882812 429.324219 L 615.394531 429.324219 Z M 623.929688 434.109375 L 629.726562 434.109375 C 630.28125 434.109375 630.730469 434.5625 630.730469 435.117188 L 630.730469 443.652344 C 630.730469 444.207031 630.28125 444.65625 629.726562 444.65625 L 623.929688 444.65625 L 623.929688 450.175781 L 816.101562 450.175781 L 816.101562 444.65625 L 810.238281 444.65625 C 809.859375 444.65625 809.582031 444.34375 809.582031 444.34375 C 809.371094 444.171875 809.269531 443.929688 809.269531 443.652344 L 809.269531 435.117188 C 809.269531 434.875 809.40625 434.5625 809.582031 434.421875 C 809.789062 434.25 810.03125 434.144531 810.273438 434.109375 L 816.101562 434.109375 L 816.101562 428.316406 C 816.101562 427.761719 816.554688 427.308594 817.109375 427.308594 L 825.609375 427.308594 C 826.164062 427.308594 826.617188 427.761719 826.617188 428.316406 L 826.617188 434.109375 L 831.992188 434.109375 L 831.992188 312.332031 L 826.617188 312.332031 L 826.617188 318.160156 C 826.617188 318.71875 826.164062 319.167969 825.609375 319.167969 L 817.109375 319.167969 C 816.449219 319.167969 816.101562 318.683594 816.101562 318.023438 L 816.101562 312.332031 L 810.273438 312.332031 C 809.71875 312.332031 809.269531 311.882812 809.269531 311.328125 L 809.269531 302.828125 C 809.269531 302.273438 809.71875 301.820312 810.273438 301.820312 L 816.101562 301.820312 L 816.101562 296.304688 L 623.929688 296.304688 L 623.929688 301.820312 L 629.726562 301.820312 C 630.28125 301.820312 630.730469 302.273438 630.730469 302.828125 L 630.730469 311.328125 C 630.730469 311.882812 630.28125 312.332031 629.726562 312.332031 L 623.929688 312.332031 L 623.929688 318.160156 C 623.929688 318.71875 623.480469 319.167969 622.890625 319.167969 L 614.390625 319.167969 C 613.835938 319.167969 613.382812 318.71875 613.382812 318.160156 L 613.382812 312.332031 L 608.007812 312.332031 L 608.007812 434.109375 L 613.382812 434.109375 L 613.382812 428.316406 C 613.382812 427.761719 613.835938 427.308594 614.390625 427.308594 L 622.890625 427.308594 C 623.480469 427.308594 623.929688 427.761719 623.929688 428.316406 Z M 818.117188 310.320312 L 824.601562 310.320312 L 824.601562 303.832031 L 818.117188 303.832031 Z M 826.617188 310.320312 L 833 310.320312 C 833.554688 310.320312 834.003906 310.773438 834.003906 311.328125 L 834.003906 435.117188 C 834.003906 435.671875 833.554688 436.121094 833 436.121094 L 826.617188 436.121094 L 826.617188 442.644531 L 833 442.644531 C 833.554688 442.644531 834.003906 443.097656 834.003906 443.652344 L 834.003906 451.179688 C 834.003906 451.734375 833.554688 452.1875 833 452.1875 L 825.609375 452.1875 C 825.054688 452.1875 824.601562 451.734375 824.601562 451.179688 L 824.601562 444.65625 L 818.117188 444.65625 L 818.117188 451.179688 C 818.117188 451.734375 817.664062 452.1875 817.109375 452.1875 L 622.890625 452.1875 C 622.335938 452.1875 621.882812 451.734375 621.882812 451.179688 L 621.882812 444.65625 L 615.394531 444.65625 L 615.394531 451.179688 C 615.394531 451.734375 614.945312 452.1875 614.390625 452.1875 L 607 452.1875 C 606.445312 452.1875 605.992188 451.734375 605.992188 451.179688 L 605.992188 443.652344 C 605.992188 443.097656 606.445312 442.644531 607 442.644531 L 613.382812 442.644531 L 613.382812 436.121094 L 607 436.121094 C 606.445312 436.121094 605.992188 435.671875 605.992188 435.117188 L 605.992188 311.328125 C 605.992188 310.773438 606.445312 310.320312 607 310.320312 L 613.382812 310.320312 L 613.382812 303.832031 L 607 303.832031 C 606.445312 303.832031 605.992188 303.382812 605.992188 302.828125 L 605.992188 295.296875 C 605.992188 294.742188 606.445312 294.292969 607 294.292969 L 614.390625 294.292969 C 614.945312 294.292969 615.394531 294.742188 615.394531 295.296875 L 615.394531 301.820312 L 621.882812 301.820312 L 621.882812 295.296875 C 621.882812 294.742188 622.335938 294.292969 622.890625 294.292969 L 817.109375 294.292969 C 817.664062 294.292969 818.117188 294.742188 818.117188 295.296875 L 818.117188 301.820312 L 824.601562 301.820312 L 824.601562 295.296875 C 824.601562 294.742188 825.054688 294.292969 825.609375 294.292969 L 833 294.292969 C 833.554688 294.292969 834.003906 294.742188 834.003906 295.296875 L 834.003906 302.828125 C 834.003906 303.382812 833.554688 303.832031 833 303.832031 L 826.617188 303.832031 Z M 824.601562 312.332031 L 818.117188 312.332031 L 818.117188 317.15625 L 824.601562 317.15625 Z M 831.992188 301.820312 L 831.992188 296.304688 L 826.617188 296.304688 L 826.617188 301.820312 Z M 816.101562 303.832031 L 811.28125 303.832031 L 811.28125 310.320312 L 816.101562 310.320312 Z M 613.382812 450.175781 L 613.382812 444.65625 L 608.007812 444.65625 L 608.007812 450.175781 Z M 824.601562 442.644531 L 824.601562 436.121094 L 818.117188 436.121094 L 818.117188 442.644531 Z M 824.601562 434.109375 L 824.601562 429.324219 L 818.117188 429.324219 L 818.117188 434.109375 Z M 826.617188 444.65625 L 826.617188 450.175781 L 831.992188 450.175781 L 831.992188 444.65625 Z M 608.007812 296.304688 L 608.007812 301.820312 L 613.382812 301.820312 L 613.382812 296.304688 Z M 816.101562 442.644531 L 816.101562 436.121094 L 811.28125 436.121094 L 811.28125 442.644531 Z M 623.929688 310.320312 L 628.71875 310.320312 L 628.71875 303.832031 L 623.929688 303.832031 Z M 621.882812 312.332031 L 615.394531 312.332031 L 615.394531 317.15625 L 621.882812 317.15625 Z M 615.394531 310.320312 L 621.882812 310.320312 L 621.882812 303.832031 L 615.394531 303.832031 Z M 623.929688 436.121094 L 623.929688 442.644531 L 628.71875 442.644531 L 628.71875 436.121094 Z M 623.929688 436.121094 "/></g></g></svg>