<svg xmlns="http://www.w3.org/2000/svg" xmlns:xlink="http://www.w3.org/1999/xlink" width="1920" zoomAndPan="magnify" viewBox="0 0 1440 809.999993" height="1080" preserveAspectRatio="xMidYMid meet" version="1.2"><defs><clipPath id="9a54be5b28"><path d="M 302 4.664062 L 1092 4.664062 L 1092 794 L 302 794 Z M 302 4.664062 "/></clipPath></defs><g id="9d1d524e14"><g clip-rule="nonzero" clip-path="url(#9a54be5b28)"><path style=" stroke:none;fill-rule:nonzero;fill:#3998ff;fill-opacity:1;" d="M 1091.757812 399.363281 C 1091.757812 405.820312 1091.601562 412.273438 1091.285156 418.722656 C 1090.96875 425.171875 1090.496094 431.609375 1089.863281 438.035156 C 1089.230469 444.457031 1088.441406 450.863281 1087.496094 457.25 C 1086.550781 463.636719 1085.445312 469.996094 1084.1875 476.328125 C 1082.929688 482.664062 1081.515625 488.960938 1079.945312 495.222656 C 1078.378906 501.488281 1076.660156 507.707031 1074.785156 513.886719 C 1072.910156 520.0625 1070.886719 526.191406 1068.714844 532.273438 C 1066.539062 538.351562 1064.214844 544.375 1061.746094 550.339844 C 1059.277344 556.304688 1056.660156 562.207031 1053.902344 568.042969 C 1051.140625 573.878906 1048.242188 579.644531 1045.199219 585.339844 C 1042.15625 591.03125 1038.972656 596.648438 1035.65625 602.1875 C 1032.335938 607.726562 1028.882812 613.179688 1025.296875 618.546875 C 1021.710938 623.917969 1017.996094 629.195312 1014.148438 634.378906 C 1010.304688 639.566406 1006.332031 644.65625 1002.238281 649.644531 C 998.144531 654.636719 993.929688 659.523438 989.59375 664.308594 C 985.257812 669.09375 980.808594 673.769531 976.242188 678.335938 C 971.675781 682.898438 967.003906 687.351562 962.21875 691.6875 C 957.4375 696.023438 952.550781 700.238281 947.558594 704.335938 C 942.566406 708.433594 937.480469 712.402344 932.292969 716.25 C 927.109375 720.097656 921.832031 723.8125 916.464844 727.402344 C 911.097656 730.988281 905.644531 734.441406 900.105469 737.761719 C 894.566406 741.082031 888.953125 744.261719 883.257812 747.308594 C 877.566406 750.351562 871.800781 753.253906 865.964844 756.015625 C 860.128906 758.773438 854.226562 761.390625 848.261719 763.863281 C 842.296875 766.332031 836.277344 768.65625 830.195312 770.832031 C 824.117188 773.007812 817.988281 775.03125 811.8125 776.90625 C 805.632812 778.78125 799.414062 780.503906 793.148438 782.074219 C 786.886719 783.640625 780.589844 785.058594 774.257812 786.316406 C 767.925781 787.578125 761.566406 788.679688 755.179688 789.628906 C 748.792969 790.574219 742.386719 791.367188 735.960938 792 C 729.535156 792.632812 723.097656 793.109375 716.652344 793.425781 C 710.203125 793.742188 703.75 793.902344 697.292969 793.902344 C 690.835938 793.902344 684.382812 793.742188 677.9375 793.425781 C 671.488281 793.109375 665.050781 792.636719 658.625 792.003906 C 652.199219 791.371094 645.792969 790.582031 639.40625 789.632812 C 633.019531 788.6875 626.660156 787.582031 620.328125 786.324219 C 613.996094 785.0625 607.699219 783.648438 601.4375 782.082031 C 595.171875 780.511719 588.953125 778.792969 582.773438 776.917969 C 576.59375 775.042969 570.464844 773.019531 564.386719 770.84375 C 558.308594 768.667969 552.285156 766.347656 546.320312 763.875 C 540.355469 761.40625 534.457031 758.789062 528.621094 756.027344 C 522.78125 753.269531 517.015625 750.367188 511.324219 747.324219 C 505.628906 744.28125 500.011719 741.097656 494.476562 737.78125 C 488.9375 734.460938 483.484375 731.007812 478.117188 727.421875 C 472.746094 723.832031 467.472656 720.117188 462.285156 716.269531 C 457.097656 712.425781 452.011719 708.453125 447.019531 704.359375 C 442.027344 700.261719 437.140625 696.046875 432.359375 691.710938 C 427.574219 687.375 422.898438 682.925781 418.335938 678.359375 C 413.769531 673.792969 409.320312 669.117188 404.984375 664.335938 C 400.648438 659.550781 396.429688 654.664062 392.335938 649.671875 C 388.238281 644.683594 384.269531 639.59375 380.421875 634.40625 C 376.578125 629.222656 372.859375 623.945312 369.273438 618.578125 C 365.6875 613.207031 362.234375 607.753906 358.914062 602.21875 C 355.59375 596.679688 352.414062 591.0625 349.371094 585.367188 C 346.328125 579.675781 343.425781 573.910156 340.664062 568.074219 C 337.90625 562.238281 335.289062 556.335938 332.816406 550.371094 C 330.347656 544.40625 328.023438 538.382812 325.851562 532.304688 C 323.675781 526.226562 321.652344 520.097656 319.777344 513.917969 C 317.902344 507.738281 316.179688 501.519531 314.613281 495.257812 C 313.042969 488.992188 311.628906 482.695312 310.371094 476.363281 C 309.113281 470.03125 308.007812 463.671875 307.0625 457.285156 C 306.113281 450.898438 305.324219 444.492188 304.691406 438.066406 C 304.058594 431.640625 303.585938 425.207031 303.269531 418.757812 C 302.953125 412.308594 302.792969 405.855469 302.792969 399.398438 C 302.792969 392.941406 302.953125 386.492188 303.269531 380.042969 C 303.585938 373.59375 304.0625 367.15625 304.695312 360.730469 C 305.328125 354.304688 306.121094 347.898438 307.066406 341.511719 C 308.015625 335.128906 309.117188 328.769531 310.378906 322.433594 C 311.640625 316.101562 313.054688 309.804688 314.621094 303.542969 C 316.191406 297.28125 317.914062 291.058594 319.789062 284.882812 C 321.664062 278.703125 323.6875 272.574219 325.863281 266.496094 C 328.039062 260.417969 330.363281 254.394531 332.832031 248.429688 C 335.304688 242.464844 337.921875 236.566406 340.683594 230.730469 C 343.441406 224.894531 346.34375 219.128906 349.390625 213.433594 C 352.433594 207.738281 355.613281 202.125 358.933594 196.585938 C 362.253906 191.050781 365.707031 185.597656 369.296875 180.230469 C 372.882812 174.859375 376.601562 169.585938 380.445312 164.398438 C 384.292969 159.214844 388.265625 154.125 392.359375 149.132812 C 396.457031 144.144531 400.671875 139.257812 405.007812 134.472656 C 409.347656 129.691406 413.796875 125.015625 418.363281 120.453125 C 422.929688 115.886719 427.601562 111.4375 432.386719 107.101562 C 437.171875 102.765625 442.058594 98.550781 447.050781 94.453125 C 452.042969 90.359375 457.132812 86.390625 462.316406 82.542969 C 467.503906 78.699219 472.78125 74.980469 478.148438 71.394531 C 483.519531 67.808594 488.972656 64.355469 494.511719 61.039062 C 500.046875 57.71875 505.664062 54.539062 511.359375 51.496094 C 517.054688 48.453125 522.820312 45.550781 528.65625 42.792969 C 534.492188 40.03125 540.394531 37.417969 546.359375 34.949219 C 552.324219 32.476562 558.347656 30.15625 564.425781 27.980469 C 570.503906 25.804688 576.632812 23.78125 582.8125 21.910156 C 588.992188 20.035156 595.210938 18.316406 601.472656 16.746094 C 607.738281 15.179688 614.035156 13.765625 620.367188 12.507812 C 626.699219 11.25 633.058594 10.144531 639.445312 9.199219 C 645.832031 8.253906 652.238281 7.464844 658.664062 6.832031 C 665.089844 6.199219 671.527344 5.726562 677.976562 5.410156 C 684.425781 5.09375 690.875 4.9375 697.332031 4.9375 C 703.792969 4.914062 710.253906 5.050781 716.707031 5.34375 C 723.164062 5.640625 729.605469 6.09375 736.039062 6.707031 C 742.46875 7.320312 748.882812 8.089844 755.277344 9.019531 C 761.671875 9.949219 768.039062 11.035156 774.378906 12.28125 C 780.722656 13.523438 787.027344 14.921875 793.300781 16.476562 C 799.570312 18.03125 805.800781 19.738281 811.988281 21.601562 C 818.175781 23.460938 824.3125 25.476562 830.402344 27.640625 C 836.488281 29.804688 842.519531 32.117188 848.496094 34.578125 C 854.46875 37.039062 860.378906 39.648438 866.226562 42.402344 C 872.070312 45.15625 877.84375 48.050781 883.546875 51.089844 C 889.25 54.128906 894.875 57.304688 900.421875 60.621094 C 905.964844 63.933594 911.425781 67.386719 916.800781 70.972656 C 922.179688 74.554688 927.460938 78.269531 932.65625 82.117188 C 937.847656 85.960938 942.941406 89.933594 947.9375 94.03125 C 952.9375 98.128906 957.828125 102.34375 962.617188 106.683594 C 967.40625 111.019531 972.085938 115.476562 976.652344 120.042969 C 981.222656 124.613281 985.675781 129.292969 990.015625 134.082031 C 994.351562 138.867188 998.570312 143.761719 1002.667969 148.757812 C 1006.761719 153.753906 1010.734375 158.847656 1014.582031 164.042969 C 1018.425781 169.234375 1022.140625 174.519531 1025.726562 179.894531 C 1029.3125 185.269531 1032.761719 190.730469 1036.078125 196.277344 C 1039.390625 201.824219 1042.570312 207.449219 1045.605469 213.152344 C 1048.644531 218.851562 1051.542969 224.628906 1054.292969 230.472656 C 1057.046875 236.316406 1059.65625 242.226562 1062.117188 248.203125 C 1064.578125 254.175781 1066.890625 260.207031 1069.054688 266.296875 C 1071.222656 272.382812 1073.234375 278.523438 1075.09375 284.710938 C 1076.957031 290.898438 1078.664062 297.125 1080.21875 303.398438 C 1081.773438 309.671875 1083.171875 315.976562 1084.417969 322.316406 C 1085.660156 328.65625 1086.746094 335.023438 1087.675781 341.417969 C 1088.605469 347.8125 1089.375 354.226562 1089.988281 360.660156 C 1090.601562 367.09375 1091.054688 373.535156 1091.351562 379.992188 C 1091.644531 386.445312 1091.78125 392.902344 1091.757812 399.363281 Z M 1091.757812 399.363281 "/></g><path style=" stroke:none;fill-rule:nonzero;fill:#ffffff;fill-opacity:1;" d="M 1001.601562 650.5 C 996.945312 656.140625 992.136719 661.648438 987.171875 667.023438 C 982.207031 672.402344 977.097656 677.632812 971.84375 682.726562 C 966.589844 687.816406 961.199219 692.757812 955.667969 697.546875 C 950.140625 702.339844 944.480469 706.972656 938.691406 711.449219 C 932.90625 715.925781 927 720.238281 920.972656 724.382812 C 914.945312 728.53125 908.804688 732.507812 902.558594 736.316406 C 896.308594 740.121094 889.960938 743.75 883.507812 747.203125 C 877.058594 750.65625 870.515625 753.925781 863.882812 757.015625 C 857.253906 760.105469 850.539062 763.007812 843.746094 765.722656 C 836.953125 768.4375 830.085938 770.964844 823.152344 773.296875 C 816.21875 775.628906 809.226562 777.769531 802.171875 779.714844 C 795.117188 781.660156 788.015625 783.40625 780.867188 784.957031 C 773.714844 786.503906 766.527344 787.855469 759.300781 789.003906 C 752.078125 790.152344 744.824219 791.101562 737.546875 791.847656 C 730.269531 792.59375 722.976562 793.136719 715.667969 793.476562 C 708.359375 793.820312 701.046875 793.957031 693.730469 793.890625 C 686.414062 793.824219 679.105469 793.554688 671.804688 793.082031 C 664.503906 792.609375 657.21875 791.933594 649.957031 791.054688 C 642.691406 790.175781 635.460938 789.097656 628.253906 787.816406 C 621.050781 786.535156 613.890625 785.054688 606.769531 783.378906 C 599.648438 781.699219 592.578125 779.824219 585.5625 777.75 C 578.542969 775.679688 571.589844 773.414062 564.699219 770.953125 C 557.808594 768.496094 550.992188 765.84375 544.25 763.007812 C 537.503906 760.167969 530.847656 757.144531 524.269531 753.9375 C 517.695312 750.726562 511.214844 747.339844 504.828125 743.769531 C 498.441406 740.199219 492.160156 736.457031 485.980469 732.539062 C 479.800781 728.617188 473.738281 724.53125 467.785156 720.273438 C 461.835938 716.019531 456.007812 711.601562 450.300781 707.019531 C 444.597656 702.4375 439.023438 697.703125 433.582031 692.8125 C 428.140625 687.921875 422.835938 682.886719 417.675781 677.699219 C 412.515625 672.515625 407.5 667.1875 402.636719 661.726562 C 397.769531 656.261719 393.058594 650.664062 388.507812 644.9375 C 430.527344 585.019531 495.671875 543.441406 632.644531 541.882812 C 790.726562 539.980469 907.007812 534.214844 955.035156 587.355469 C 972.519531 606.957031 988.042969 628.003906 1001.601562 650.5 Z M 1001.601562 650.5 "/><path style=" stroke:none;fill-rule:nonzero;fill:#14213d;fill-opacity:1;" d="M 566.636719 299.894531 C 490.792969 272.457031 503.160156 172.410156 513.921875 170.257812 C 524.683594 168.109375 547.792969 185.855469 548.878906 186.394531 C 549.964844 186.933594 543.507812 141.746094 558.03125 120.769531 C 572.558594 99.792969 627.960938 142.285156 670.457031 142.824219 C 712.953125 143.363281 815.695312 146.050781 845.8125 172.945312 C 875.929688 199.84375 860.296875 257.402344 860.296875 257.402344 C 860.296875 257.402344 894.761719 266.542969 887.753906 314.957031 C 880.75 363.371094 826.433594 404.945312 807.066406 439.828125 C 787.703125 474.714844 672.679688 481.171875 654.835938 430.609375 "/><path style=" stroke:none;fill-rule:nonzero;fill:#ffb5a6;fill-opacity:1;" d="M 691.566406 600.1875 C 636.425781 600.1875 628.3125 554.160156 628.089844 546.378906 C 628.089844 545.492188 627.980469 543.933594 628.089844 541.820312 C 627.980469 537.488281 627.980469 530.816406 627.980469 523.035156 C 628.203125 502.023438 628.421875 473.011719 628.089844 460.558594 L 733.367188 422.871094 L 752.488281 415.980469 L 773.722656 408.417969 C 773.722656 408.417969 773.609375 412.53125 773.386719 419.316406 C 773.277344 423.203125 773.164062 427.984375 773.054688 433.433594 C 773.070312 434.070312 773.03125 434.703125 772.941406 435.335938 C 772.832031 443.21875 772.722656 452.230469 772.5 461.683594 C 772.164062 491.363281 772.054688 524.714844 773.609375 536.71875 C 776.492188 560.054688 746.695312 600.1875 691.566406 600.1875 Z M 691.566406 600.1875 "/><path style=" stroke:none;fill-rule:nonzero;fill:#e86b70;fill-opacity:1;" d="M 773.820312 433.65625 C 773.570312 434.234375 773.273438 434.789062 772.929688 435.320312 C 735.578125 512.140625 679.4375 542.601562 628.078125 541.820312 C 627.96875 537.488281 627.96875 530.816406 627.96875 523.035156 C 628.191406 502.023438 628.410156 473.011719 628.078125 460.558594 L 733.355469 422.871094 L 773.046875 433.433594 Z M 773.820312 433.65625 "/><path style=" stroke:none;fill-rule:nonzero;fill:#ffb5a6;fill-opacity:1;" d="M 564.550781 231.578125 C 625.871094 305.09375 777.324219 291.828125 777.324219 291.828125 C 777.324219 291.828125 780.191406 377.894531 795.253906 377.175781 C 810.3125 376.457031 812.824219 328.761719 849.761719 336.667969 C 886.699219 344.570312 863.746094 415.917969 835.058594 419.859375 C 806.371094 423.796875 799.195312 399.417969 799.195312 399.417969 C 799.195312 399.417969 746.300781 504.3125 662.386719 504.3125 C 578.472656 504.3125 556.992188 423.863281 557.496094 380.042969 C 557.996094 336.222656 564.550781 231.578125 564.550781 231.578125 Z M 564.550781 231.578125 "/></g></svg>