<svg xmlns="http://www.w3.org/2000/svg" xmlns:xlink="http://www.w3.org/1999/xlink" width="1920" zoomAndPan="magnify" viewBox="0 0 1440 809.999993" height="1080" preserveAspectRatio="xMidYMid meet" version="1.2"><defs><clipPath id="32c1697a19"><path d="M 631.628906 297.21875 L 793.628906 297.21875 L 793.628906 324.96875 L 631.628906 324.96875 Z M 631.628906 297.21875 "/></clipPath></defs><g id="8b7615d92e"><path style=" stroke:none;fill-rule:nonzero;fill:#e7bc49;fill-opacity:1;" d="M 779.804688 323.796875 L 645.457031 323.796875 C 638.359375 323.796875 632.613281 318.046875 632.613281 310.953125 C 632.613281 303.859375 638.359375 298.109375 645.457031 298.109375 L 779.800781 298.109375 C 786.894531 298.109375 792.644531 303.859375 792.644531 310.953125 C 792.648438 318.046875 786.894531 323.796875 779.804688 323.796875 Z M 779.804688 323.796875 "/><g clip-rule="nonzero" clip-path="url(#32c1697a19)"><path style=" stroke:none;fill-rule:nonzero;fill:#e0b44b;fill-opacity:1;" d="M 779.804688 324.6875 L 645.457031 324.6875 C 641.789062 324.6875 638.339844 323.257812 635.746094 320.664062 C 633.152344 318.070312 631.722656 314.621094 631.722656 310.953125 C 631.722656 307.285156 633.152344 303.835938 635.746094 301.242188 C 638.339844 298.648438 641.789062 297.21875 645.457031 297.21875 L 779.800781 297.21875 C 783.46875 297.21875 786.917969 298.648438 789.511719 301.242188 C 792.105469 303.835938 793.535156 307.285156 793.535156 310.953125 C 793.535156 314.621094 792.105469 318.070312 789.511719 320.664062 C 786.921875 323.261719 783.472656 324.6875 779.804688 324.6875 Z M 645.457031 299 C 638.863281 299 633.503906 304.363281 633.503906 310.953125 C 633.503906 317.542969 638.863281 322.90625 645.457031 322.90625 L 779.800781 322.90625 C 786.390625 322.90625 791.753906 317.542969 791.753906 310.953125 C 791.753906 304.363281 786.390625 299 779.800781 299 Z M 645.457031 299 "/></g></g></svg>