<svg xmlns="http://www.w3.org/2000/svg" xmlns:xlink="http://www.w3.org/1999/xlink" width="1920" zoomAndPan="magnify" viewBox="0 0 1440 809.999993" height="1080" preserveAspectRatio="xMidYMid meet" version="1.2"><defs><clipPath id="f4f3b39914"><path d="M 151.832031 553 L 1288 553 L 1288 798 L 151.832031 798 Z M 151.832031 553 "/></clipPath></defs><g id="01c753e988"><path style=" stroke:none;fill-rule:nonzero;fill:#e7bc49;fill-opacity:1;" d="M 661.4375 553.917969 L 1012.847656 675.511719 L 1057.820312 695.480469 C 1106.398438 625.203125 1134.878906 539.96875 1134.878906 448.070312 C 1134.878906 207.453125 939.816406 12.394531 699.203125 12.394531 C 458.585938 12.394531 263.527344 207.453125 263.527344 448.070312 C 263.527344 532.15625 287.375 610.664062 328.636719 677.242188 L 348.300781 663.851562 Z M 661.4375 553.917969 "/><g clip-rule="nonzero" clip-path="url(#f4f3b39914)"><path style=" stroke:none;fill-rule:nonzero;fill:#000000;fill-opacity:1;" d="M 348.300781 663.851562 L 661.4375 553.917969 L 1012.847656 675.511719 L 1287.976562 797.683594 L 151.742188 797.683594 Z M 348.300781 663.851562 "/></g><path style=" stroke:none;fill-rule:nonzero;fill:#ffffff;fill-opacity:1;" d="M 1012.847656 675.511719 L 1009.085938 673.492188 L 1006.492188 672.09375 L 1003.910156 670.644531 L 998.742188 667.738281 C 995.304688 665.78125 991.847656 663.902344 988.417969 661.882812 C 981.566406 657.835938 974.6875 653.910156 967.867188 649.71875 L 957.621094 643.5 L 947.410156 637.117188 L 942.308594 633.917969 L 937.222656 630.644531 L 927.054688 624.097656 L 916.917969 617.398438 L 911.855469 614.050781 L 906.804688 610.632812 L 896.703125 603.816406 L 886.628906 596.875 C 883.265625 594.578125 879.921875 592.222656 876.578125 589.863281 C 873.234375 587.503906 869.878906 585.179688 866.542969 582.785156 C 853.179688 573.285156 839.886719 563.53125 826.628906 553.660156 C 813.371094 543.792969 800.175781 533.707031 787.039062 523.441406 C 780.472656 518.292969 773.917969 513.121094 767.390625 507.875 C 760.867188 502.644531 754.332031 497.316406 747.902344 491.976562 L 746.613281 491.195312 L 746.738281 491.246094 C 746.765625 491.257812 746.746094 491.25 746.75 491.25 L 746.65625 491.199219 C 746.601562 491.171875 746.484375 491.09375 746.394531 491.039062 C 746.195312 490.90625 745.976562 490.765625 745.742188 490.589844 C 745.28125 490.253906 744.789062 489.863281 744.292969 489.429688 C 743.296875 488.582031 742.277344 487.589844 741.265625 486.535156 C 739.246094 484.425781 737.226562 482.019531 735.277344 479.523438 L 733.847656 477.664062 L 732.328125 475.582031 L 731.945312 475.0625 L 731.753906 474.804688 C 731.703125 474.730469 731.800781 474.863281 731.78125 474.835938 L 731.753906 474.800781 L 731.695312 474.726562 L 731.582031 474.582031 L 730.683594 473.40625 L 729.78125 472.242188 L 729.332031 471.660156 L 728.847656 471.113281 L 726.902344 468.964844 C 726.21875 468.300781 725.515625 467.664062 724.820312 467.023438 C 724.644531 466.867188 724.476562 466.699219 724.296875 466.550781 L 723.742188 466.132812 L 722.636719 465.296875 C 721.90625 464.707031 721.121094 464.28125 720.347656 463.816406 C 717.246094 462.015625 713.894531 461.066406 710.644531 460.960938 C 707.382812 460.816406 704.273438 461.546875 701.46875 462.386719 C 700.742188 462.597656 700.121094 462.808594 699.445312 463.019531 L 698.460938 463.335938 L 698 463.476562 L 697.558594 463.601562 C 696.390625 463.953125 695.195312 464.210938 693.992188 464.429688 C 691.578125 464.855469 689.121094 465.046875 686.644531 465.023438 C 684.171875 465.015625 681.683594 464.789062 679.207031 464.382812 C 678.578125 464.292969 677.996094 464.167969 677.398438 464.058594 L 675.441406 463.632812 C 673.582031 463.242188 672.019531 463.230469 670.5 463.269531 C 667.480469 463.386719 664.714844 463.839844 661.980469 464.3125 L 653.976562 465.835938 C 651.378906 466.316406 648.792969 466.769531 646.433594 466.921875 C 645.277344 467 644.136719 466.980469 643.382812 466.839844 L 643.160156 466.78125 L 643.074219 466.761719 L 643.042969 466.730469 L 642.550781 466.285156 C 642.253906 466.042969 641.949219 465.820312 641.640625 465.605469 C 641.351562 465.417969 641.074219 465.257812 640.789062 465.09375 C 638.59375 463.96875 636.855469 463.761719 635.191406 463.628906 C 633.546875 463.53125 632.003906 463.625 630.503906 463.808594 C 629.007812 463.996094 627.550781 464.269531 626.113281 464.609375 C 625.394531 464.777344 624.675781 464.964844 623.964844 465.167969 L 622.886719 465.488281 L 621.746094 465.859375 L 620.84375 466.15625 L 619.953125 467.023438 L 599.839844 486.5625 C 593.113281 492.996094 586.347656 499.339844 579.601562 505.734375 L 559.230469 524.53125 L 548.972656 533.710938 C 545.550781 536.753906 542.140625 539.847656 538.703125 542.851562 C 524.929688 554.792969 511.121094 566.628906 497.097656 577.746094 C 490.128906 583.449219 483.058594 588.800781 476.015625 594.242188 C 472.488281 596.933594 468.921875 599.492188 465.375 602.125 L 460.046875 606.03125 L 454.679688 609.792969 C 440.386719 619.863281 425.910156 629.246094 411.234375 637.570312 C 396.558594 645.878906 381.652344 653.03125 366.554688 658.457031 C 360.5 660.566406 354.410156 662.386719 348.300781 663.855469 L 422.597656 655.382812 C 422.597656 655.382812 431.8125 685.972656 446.1875 685.972656 C 460.566406 685.972656 526.246094 644.144531 526.246094 644.144531 L 515.191406 685.972656 L 558.320312 660.742188 L 569.820312 683.679688 L 631.636719 640.097656 L 638.824219 685.972656 L 673.960938 655.984375 L 695.222656 680.546875 L 711.425781 642.390625 L 761.023438 681.382812 L 756.710938 651.566406 L 798.402344 699.734375 L 788.484375 659.128906 L 828.59375 688.265625 L 807.027344 653.859375 L 877.535156 689.136719 L 847.648438 639.296875 L 917.722656 683.679688 L 895.25 640.398438 Z M 1012.847656 675.511719 "/><path style=" stroke:none;fill-rule:nonzero;fill:#05040c;fill-opacity:1;" d="M 1113.738281 184.273438 C 840.574219 214.566406 557.832031 214.566406 284.664062 184.273438 L 220.457031 177.140625 L 242.707031 205.210938 C 250.496094 215.101562 262.136719 221.515625 275.09375 223.03125 C 275.1875 223.03125 275.1875 223.03125 275.28125 223.03125 L 298.464844 255.550781 C 304.222656 256.3125 310.023438 256.921875 315.792969 257.652344 L 326.5625 269.96875 C 332.117188 276.328125 340.230469 280.414062 349.101562 281.324219 L 349.382812 281.351562 C 360.796875 282.523438 369.425781 291.300781 369.425781 301.753906 L 369.425781 312.140625 C 398.53125 316.554688 425.898438 325.824219 425.898438 328.59375 L 425.898438 344.742188 C 425.898438 347.507812 428.261719 349.753906 431.179688 349.753906 L 433.128906 349.753906 L 432.664062 371.976562 C 410.8125 370.613281 388.964844 369.210938 367.242188 367.511719 L 315.863281 363.492188 L 343.425781 388.035156 C 349.863281 388.578125 356.375 388.949219 362.828125 389.460938 L 362.828125 422.882812 L 431.609375 422.882812 L 423.84375 797.683594 L 494.246094 797.683594 L 486.480469 422.882812 L 911.921875 422.882812 L 904.152344 797.683594 L 974.558594 797.683594 L 966.785156 422.882812 L 1032.441406 422.882812 L 1032.441406 389.789062 C 1039.957031 389.199219 1047.539062 388.765625 1055.035156 388.136719 L 1056.226562 388.035156 L 1082.53125 363.492188 L 1031.152344 367.511719 C 1009.429688 369.214844 987.585938 370.613281 965.730469 371.976562 L 965.269531 349.757812 L 967.21875 349.757812 C 970.132812 349.757812 972.5 347.511719 972.5 344.746094 L 972.5 328.59375 C 972.5 325.828125 1004.46875 316.554688 1033.574219 312.144531 L 1033.574219 301.4375 C 1033.574219 291.015625 1042.160156 282.242188 1053.550781 281.050781 C 1053.582031 281.046875 1053.613281 281.042969 1053.648438 281.039062 C 1060.488281 280.320312 1066.71875 277.078125 1070.890625 272.097656 L 1082.855469 257.808594 C 1088.570312 257.085938 1094.320312 256.484375 1100.03125 255.734375 L 1101.347656 255.554688 L 1123.40625 223.214844 L 1124.25 223.121094 C 1137.484375 221.515625 1149.5 214.746094 1157.292969 204.5 L 1177.945312 177.144531 Z M 912.917969 374.871094 C 771.070312 381.925781 627.335938 381.925781 485.488281 374.871094 L 484.964844 349.761719 L 486.917969 349.761719 C 489.832031 349.761719 492.195312 347.515625 492.195312 344.75 L 492.195312 328.597656 C 492.195312 328.109375 492.042969 327.652344 491.902344 327.207031 C 629.699219 340.277344 768.59375 340.410156 906.414062 327.632812 C 906.34375 327.960938 906.210938 328.253906 906.210938 328.597656 L 906.210938 344.75 C 906.210938 347.515625 908.574219 349.761719 911.492188 349.761719 L 913.441406 349.761719 Z M 912.917969 374.871094 "/></g></svg>