<svg xmlns="http://www.w3.org/2000/svg" xmlns:xlink="http://www.w3.org/1999/xlink" width="1920" zoomAndPan="magnify" viewBox="0 0 1440 809.999993" height="1080" preserveAspectRatio="xMidYMid meet" version="1.2"><g id="cf86635f39"><path style=" stroke:none;fill-rule:nonzero;fill:#916002;fill-opacity:1;" d="M 1111.890625 678.320312 C 854.863281 608.042969 597.101562 611.023438 337.476562 679.875 C 295.589844 533.003906 230.761719 395.578125 154.398438 263.679688 C 122.617188 270.019531 104.4375 263.550781 95.320312 243.433594 C 87.175781 225.507812 93.054688 203.992188 109.097656 192.863281 C 124.960938 181.890625 145.867188 183.265625 159.949219 196.199219 C 176.371094 211.324219 176.933594 231.417969 160.660156 258.816406 C 234.429688 335.789062 309.75 411.136719 416.949219 441.894531 C 495.222656 464.355469 560.484375 443.269531 611.871094 380.199219 C 655.4375 326.726562 678.914062 263.550781 697.757812 198.390625 C 704.632812 174.660156 709.953125 150.441406 715.859375 126.941406 C 676.75 105.144531 664.808594 84.722656 672.957031 55.492188 C 679.984375 30.230469 702.976562 13.425781 728.617188 14.75 C 753.574219 16.046875 775.417969 34.941406 779.824219 59.003906 C 785.171875 88.1875 771.828125 109.320312 735.800781 125.871094 C 741.832031 149.78125 747.4375 174.402344 754.285156 198.644531 C 771.242188 258.765625 793.089844 316.84375 830.292969 367.875 C 868.792969 420.710938 918.828125 454.015625 986.28125 450.832031 C 1026.714844 448.921875 1065.34375 436.117188 1100.917969 416.332031 C 1174.199219 375.5625 1235.539062 320.308594 1291.8125 257.339844 C 1289.191406 252.855469 1286.390625 248.578125 1284.097656 244.046875 C 1275.339844 226.707031 1279.414062 206.386719 1293.980469 194.0625 C 1307.90625 182.296875 1328.507812 181.355469 1343.480469 191.820312 C 1359.164062 202.769531 1365.148438 222.808594 1358.070312 240.710938 C 1351.195312 258.128906 1332.019531 270.554688 1313.761719 265.027344 C 1299.300781 260.671875 1295.074219 267.269531 1289.546875 277.199219 C 1245.699219 355.804688 1202.898438 434.867188 1171.246094 519.40625 C 1151.5625 571.9375 1131.957031 624.542969 1111.890625 678.320312 Z M 1111.890625 678.320312 "/><path style=" stroke:none;fill-rule:nonzero;fill:#916002;fill-opacity:1;" d="M 361.488281 796.800781 C 357.492188 773.527344 353.800781 752.0625 349.472656 726.90625 C 600.460938 660.039062 850.410156 655.761719 1102.773438 725.429688 C 1100.304688 739.253906 1098.191406 750.664062 1096.207031 762.121094 C 1094.296875 773.121094 1092.539062 784.121094 1090.605469 795.785156 C 847.429688 733.855469 605.070312 736.53125 361.488281 796.800781 Z M 361.488281 796.800781 "/><path style=" stroke:none;fill-rule:nonzero;fill:#916002;fill-opacity:1;" d="M 461.535156 265.84375 C 489.695312 312.464844 517.707031 358.785156 546.125 405.789062 C 525.574219 426.3125 466.195312 436.089844 437.574219 422.492188 C 442.589844 370.523438 447.554688 319.011719 452.417969 268.769531 C 418.09375 252.855469 408.75 241.421875 411.550781 221.332031 C 413.816406 204.960938 426.523438 191.871094 442.71875 189.171875 C 458.9375 186.472656 475.132812 194.800781 482.515625 209.570312 C 491.277344 227.136719 486.054688 243.460938 461.535156 265.84375 Z M 461.535156 265.84375 "/><path style=" stroke:none;fill-rule:nonzero;fill:#916002;fill-opacity:1;" d="M 990.101562 266.019531 C 964.816406 241.804688 960.15625 226.324219 969.90625 208.320312 C 977.675781 193.984375 994.605469 186.066406 1010.523438 189.351562 C 1027.277344 192.8125 1039.472656 207.328125 1040.160156 224.644531 C 1040.976562 245.167969 1030.664062 256.804688 999.472656 267.039062 C 1004.335938 318.015625 1009.324219 370.039062 1014.339844 422.570312 C 983.761719 434.738281 934.640625 427.507812 905.179688 406.5 C 933.777344 359.265625 962.242188 312.136719 990.101562 266.019531 Z M 990.101562 266.019531 "/></g></svg>