<svg xmlns="http://www.w3.org/2000/svg" xmlns:xlink="http://www.w3.org/1999/xlink" width="1920" zoomAndPan="magnify" viewBox="0 0 1440 809.999993" height="1080" preserveAspectRatio="xMidYMid meet" version="1.2"><defs><clipPath id="70df917713"><path d="M 621.015625 539 L 678 539 L 678 559 L 621.015625 559 Z M 621.015625 539 "/></clipPath><filter x="0%" y="0%" width="100%" filterUnits="objectBoundingBox" id="9388fcb2ef" height="100%"><feColorMatrix values="0 0 0 0 1 0 0 0 0 1 0 0 0 0 1 0 0 0 1 0" type="matrix" in="SourceGraphic"/></filter><clipPath id="09eac20923"><path d="M 0.519531 0.199219 L 28.839844 0.199219 L 28.839844 38.601562 L 0.519531 38.601562 Z M 0.519531 0.199219 "/></clipPath><clipPath id="823a9d76a8"><rect x="0" width="29" y="0" height="39"/></clipPath><clipPath id="9e2fdb4d9e"><path d="M 0.480469 0.238281 L 27.601562 0.238281 L 27.601562 8 L 0.480469 8 Z M 0.480469 0.238281 "/></clipPath><clipPath id="f4121cf543"><rect x="0" width="28" y="0" height="9"/></clipPath><clipPath id="526b9f6ff0"><path d="M 621.015625 304 L 678 304 L 678 324 L 621.015625 324 Z M 621.015625 304 "/></clipPath><clipPath id="124488de6b"><path d="M 0.519531 0 L 28.839844 0 L 28.839844 38.878906 L 0.519531 38.878906 Z M 0.519531 0 "/></clipPath><clipPath id="77638f00d7"><rect x="0" width="29" y="0" height="39"/></clipPath><clipPath id="f7e6fc23ee"><path d="M 0.480469 0.519531 L 27.601562 0.519531 L 27.601562 8 L 0.480469 8 Z M 0.480469 0.519531 "/></clipPath><clipPath id="f4bad361b7"><rect x="0" width="28" y="0" height="9"/></clipPath><clipPath id="bd860d4a4e"><path d="M 621.015625 779 L 678 779 L 678 798 L 621.015625 798 Z M 621.015625 779 "/></clipPath><clipPath id="8d79e85641"><path d="M 0.519531 0 L 28.839844 0 L 28.839844 38.878906 L 0.519531 38.878906 Z M 0.519531 0 "/></clipPath><clipPath id="5e33ce5613"><rect x="0" width="29" y="0" height="39"/></clipPath><clipPath id="24ca3d35eb"><path d="M 0.480469 0.519531 L 27.601562 0.519531 L 27.601562 8 L 0.480469 8 Z M 0.480469 0.519531 "/></clipPath><clipPath id="38189dcc66"><rect x="0" width="28" y="0" height="9"/></clipPath><clipPath id="2058d7d03c"><path d="M 0.601562 1 L 21.71875 1 L 21.71875 29.558594 L 0.601562 29.558594 Z M 0.601562 1 "/></clipPath><clipPath id="dd1486bab4"><rect x="0" width="22" y="0" height="30"/></clipPath><clipPath id="ab27b1babb"><path d="M 0.601562 1 L 21.71875 1 L 21.71875 29.71875 L 0.601562 29.71875 Z M 0.601562 1 "/></clipPath><clipPath id="8298a7ec0e"><rect x="0" width="22" y="0" height="30"/></clipPath><clipPath id="31b18755d4"><path d="M 724 401 L 780.765625 401 L 780.765625 420 L 724 420 Z M 724 401 "/></clipPath><clipPath id="8689303f13"><path d="M 0.238281 0.238281 L 28.078125 0.238281 L 28.078125 38.878906 L 0.238281 38.878906 Z M 0.238281 0.238281 "/></clipPath><clipPath id="ee48071727"><rect x="0" width="29" y="0" height="39"/></clipPath><clipPath id="97557e2217"><path d="M 0.480469 0.519531 L 27.601562 0.519531 L 27.601562 8.441406 L 0.480469 8.441406 Z M 0.480469 0.519531 "/></clipPath><clipPath id="f1fc576a9d"><rect x="0" width="28" y="0" height="9"/></clipPath><clipPath id="27711f2ab3"><path d="M 724 206 L 780.765625 206 L 780.765625 225 L 724 225 Z M 724 206 "/></clipPath><clipPath id="79a6541d7a"><path d="M 0.238281 0.359375 L 28.078125 0.359375 L 28.078125 39 L 0.238281 39 Z M 0.238281 0.359375 "/></clipPath><clipPath id="f05e504c6e"><rect x="0" width="29" y="0" height="40"/></clipPath><clipPath id="858efcb74e"><path d="M 0.480469 1 L 27.601562 1 L 27.601562 8.558594 L 0.480469 8.558594 Z M 0.480469 1 "/></clipPath><clipPath id="5fc22fefbd"><rect x="0" width="28" y="0" height="9"/></clipPath><clipPath id="c0c8a1227e"><path d="M 724 638 L 780.765625 638 L 780.765625 657 L 724 657 Z M 724 638 "/></clipPath><clipPath id="aedd1acf89"><path d="M 0.238281 0.121094 L 28.078125 0.121094 L 28.078125 39 L 0.238281 39 Z M 0.238281 0.121094 "/></clipPath><clipPath id="85dd759895"><rect x="0" width="29" y="0" height="39"/></clipPath><clipPath id="6134d0d847"><path d="M 0.480469 0.640625 L 27.601562 0.640625 L 27.601562 8.320312 L 0.480469 8.320312 Z M 0.480469 0.640625 "/></clipPath><clipPath id="1900cbb3e6"><rect x="0" width="28" y="0" height="9"/></clipPath><clipPath id="e4421b0cb6"><path d="M 0.0390625 0.078125 L 21 0.078125 L 21 28.878906 L 0.0390625 28.878906 Z M 0.0390625 0.078125 "/></clipPath><clipPath id="612b611c3b"><rect x="0" width="22" y="0" height="29"/></clipPath><clipPath id="25ace15d2e"><path d="M 0.0390625 1 L 21.398438 1 L 21.398438 29.761719 L 0.0390625 29.761719 Z M 0.0390625 1 "/></clipPath><clipPath id="02f692b4f2"><rect x="0" width="22" y="0" height="30"/></clipPath></defs><g id="f0753dc9f5"><path style=" stroke:none;fill-rule:nonzero;fill:#740000;fill-opacity:1;" d="M 702.351562 785.496094 C 692.871094 785.5 688.695312 783.109375 688.503906 780.917969 C 688.265625 778.15625 690.171875 776.109375 690.277344 773.441406 C 690.484375 768.292969 691.25 661.722656 691.171875 658.484375 C 691.078125 654.480469 686.933594 652.257812 685.789062 649.097656 C 685.304688 647.757812 686.203125 645.695312 688.886719 646.382812 C 694.089844 647.714844 698.019531 648.28125 702.351562 648.320312 C 706.683594 648.28125 710.667969 647.714844 715.816406 646.382812 C 718.5 645.6875 719.398438 647.757812 718.914062 649.097656 C 717.773438 652.257812 713.625 654.480469 713.53125 658.484375 C 713.453125 661.722656 714.222656 768.292969 714.425781 773.441406 C 714.53125 776.109375 716.4375 778.15625 716.199219 780.917969 C 716.007812 783.109375 711.832031 785.5 702.351562 785.496094 Z M 702.351562 785.496094 "/><path style=" stroke:none;fill-rule:nonzero;fill:#ffffff;fill-opacity:1;" d="M 698.742188 658.328125 C 699.933594 697.375 699.96875 736.480469 698.507812 775.523438 C 698.386719 777.394531 695.574219 777.410156 695.523438 775.449219 C 695.65625 746.183594 696.03125 716.917969 695.824219 687.652344 C 695.777344 677.894531 695.707031 668.140625 695.757812 658.382812 C 695.792969 656.507812 698.605469 656.367188 698.742188 658.328125 Z M 698.742188 658.328125 "/><path style=" stroke:none;fill-rule:nonzero;fill:#740000;fill-opacity:1;" d="M 702.351562 214.460938 C 692.871094 214.464844 688.695312 212.074219 688.503906 209.882812 C 688.265625 207.125 690.171875 205.078125 690.277344 202.410156 C 690.484375 197.257812 691.25 90.6875 691.171875 87.449219 C 691.078125 83.445312 686.933594 81.222656 685.789062 78.0625 C 685.304688 76.722656 686.203125 74.660156 688.886719 75.347656 C 694.089844 76.679688 698.019531 77.246094 702.351562 77.285156 C 706.683594 77.246094 710.667969 76.679688 715.816406 75.347656 C 718.5 74.652344 719.398438 76.722656 718.914062 78.0625 C 717.773438 81.222656 713.625 83.445312 713.53125 87.449219 C 713.453125 90.6875 714.222656 197.257812 714.425781 202.410156 C 714.53125 205.078125 716.4375 207.125 716.199219 209.882812 C 716.007812 212.074219 711.832031 214.464844 702.351562 214.460938 Z M 702.351562 214.460938 "/><path style=" stroke:none;fill-rule:nonzero;fill:#ffffff;fill-opacity:1;" d="M 698.742188 87.292969 C 699.933594 126.339844 699.96875 165.449219 698.507812 204.488281 C 698.386719 206.359375 695.574219 206.375 695.523438 204.414062 C 695.65625 175.148438 696.03125 145.882812 695.824219 116.617188 C 695.777344 106.859375 695.707031 97.105469 695.757812 87.347656 C 695.792969 85.476562 698.605469 85.332031 698.742188 87.292969 Z M 698.742188 87.292969 "/><path style=" stroke:none;fill-rule:nonzero;fill:#740000;fill-opacity:1;" d="M 702.351562 548.125 C 692.871094 548.128906 688.695312 545.738281 688.503906 543.546875 C 688.265625 540.789062 690.171875 538.742188 690.277344 536.074219 C 690.484375 530.925781 691.25 424.351562 691.171875 421.113281 C 691.078125 417.109375 686.933594 414.886719 685.789062 411.726562 C 685.304688 410.386719 686.203125 408.324219 688.886719 409.011719 C 694.089844 410.347656 698.019531 410.914062 702.351562 410.949219 C 706.683594 410.914062 710.667969 410.347656 715.816406 409.011719 C 718.5 408.316406 719.398438 410.386719 718.914062 411.726562 C 717.773438 414.886719 713.625 417.109375 713.53125 421.113281 C 713.453125 424.351562 714.222656 530.925781 714.425781 536.074219 C 714.53125 538.742188 716.4375 540.789062 716.199219 543.546875 C 716.007812 545.738281 711.832031 548.128906 702.351562 548.125 Z M 702.351562 548.125 "/><path style=" stroke:none;fill-rule:nonzero;fill:#ffffff;fill-opacity:1;" d="M 698.742188 420.957031 C 699.933594 460.007812 699.96875 499.113281 698.507812 538.15625 C 698.386719 540.023438 695.574219 540.039062 695.523438 538.078125 C 695.65625 508.8125 696.03125 479.546875 695.824219 450.28125 C 695.777344 440.527344 695.707031 430.769531 695.757812 421.011719 C 695.792969 419.140625 698.605469 418.996094 698.742188 420.957031 Z M 698.742188 420.957031 "/><path style=" stroke:none;fill-rule:nonzero;fill:#740000;fill-opacity:1;" d="M 702.351562 644.417969 C 692.871094 644.425781 688.695312 642.03125 688.503906 639.839844 C 688.265625 637.082031 690.171875 635.035156 690.277344 632.367188 C 690.484375 627.21875 691.25 565.429688 691.171875 562.1875 C 691.078125 558.1875 686.933594 555.964844 685.789062 552.804688 C 685.304688 551.464844 686.203125 549.398438 688.886719 550.089844 C 694.089844 551.421875 698.019531 551.988281 702.351562 552.023438 C 706.683594 551.988281 710.667969 551.421875 715.816406 550.089844 C 718.5 549.394531 719.398438 551.464844 718.914062 552.804688 C 717.773438 555.964844 713.625 558.1875 713.53125 562.1875 C 713.453125 565.429688 714.222656 627.21875 714.425781 632.367188 C 714.53125 635.035156 716.4375 637.082031 716.199219 639.839844 C 716.007812 642.03125 711.832031 644.425781 702.351562 644.417969 Z M 702.351562 644.417969 "/><path style=" stroke:none;fill-rule:nonzero;fill:#ffffff;fill-opacity:1;" d="M 698.742188 562.035156 C 699.613281 580.121094 699.773438 598.265625 699.285156 616.367188 C 699.125 622.402344 698.910156 628.429688 698.507812 634.449219 C 698.453125 635.273438 697.742188 635.894531 696.917969 635.839844 C 696.136719 635.789062 695.539062 635.140625 695.523438 634.371094 C 695.488281 616.292969 696.144531 598.253906 695.761719 580.175781 C 695.699219 574.148438 695.632812 568.121094 695.757812 562.089844 C 695.8125 560.21875 698.605469 560.132812 698.742188 562.035156 Z M 698.742188 562.035156 "/><path style=" stroke:none;fill-rule:nonzero;fill:#740000;fill-opacity:1;" d="M 702.351562 407.050781 C 692.871094 407.054688 688.695312 404.664062 688.503906 402.472656 C 688.265625 399.710938 690.171875 397.664062 690.277344 394.996094 C 690.484375 389.847656 691.25 328.058594 691.171875 324.816406 C 691.078125 320.816406 686.933594 318.59375 685.789062 315.433594 C 685.304688 314.09375 686.203125 312.03125 688.886719 312.71875 C 694.089844 314.050781 698.019531 314.617188 702.351562 314.65625 C 706.683594 314.617188 710.667969 314.050781 715.816406 312.71875 C 718.5 312.023438 719.398438 314.09375 718.914062 315.433594 C 717.773438 318.59375 713.625 320.816406 713.53125 324.816406 C 713.453125 328.058594 714.222656 389.847656 714.425781 394.996094 C 714.53125 397.664062 716.4375 399.710938 716.199219 402.472656 C 716.007812 404.664062 711.832031 407.054688 702.351562 407.050781 Z M 702.351562 407.050781 "/><path style=" stroke:none;fill-rule:nonzero;fill:#ffffff;fill-opacity:1;" d="M 698.742188 324.664062 C 699.613281 342.75 699.773438 360.894531 699.285156 379 C 699.125 385.03125 698.910156 391.058594 698.507812 397.078125 C 698.453125 397.902344 697.742188 398.523438 696.917969 398.46875 C 696.136719 398.417969 695.539062 397.769531 695.523438 397.003906 C 695.488281 378.921875 696.144531 360.882812 695.761719 342.804688 C 695.699219 336.78125 695.632812 330.75 695.757812 324.71875 C 695.8125 322.851562 698.605469 322.761719 698.742188 324.664062 Z M 698.742188 324.664062 "/><path style=" stroke:none;fill-rule:nonzero;fill:#740000;fill-opacity:1;" d="M 702.351562 310.753906 C 692.871094 310.761719 688.695312 308.367188 688.503906 306.175781 C 688.265625 303.417969 690.171875 301.371094 690.277344 298.703125 C 690.484375 293.554688 691.25 231.765625 691.171875 228.523438 C 691.078125 224.523438 686.933594 222.300781 685.789062 219.140625 C 685.304688 217.800781 686.203125 215.734375 688.886719 216.421875 C 694.089844 217.757812 698.019531 218.324219 702.351562 218.359375 C 706.683594 218.324219 710.667969 217.757812 715.816406 216.421875 C 718.5 215.730469 719.398438 217.800781 718.914062 219.140625 C 717.773438 222.300781 713.625 224.523438 713.53125 228.523438 C 713.453125 231.765625 714.222656 293.554688 714.425781 298.703125 C 714.53125 301.371094 716.4375 303.417969 716.199219 306.175781 C 716.007812 308.367188 711.832031 310.761719 702.351562 310.753906 Z M 702.351562 310.753906 "/><path style=" stroke:none;fill-rule:nonzero;fill:#ffffff;fill-opacity:1;" d="M 698.742188 228.367188 C 699.613281 246.457031 699.773438 264.601562 699.285156 282.703125 C 699.125 288.738281 698.910156 294.765625 698.507812 300.785156 C 698.453125 301.609375 697.742188 302.230469 696.917969 302.175781 C 696.136719 302.125 695.539062 301.476562 695.523438 300.707031 C 695.488281 282.628906 696.144531 264.589844 695.761719 246.511719 C 695.699219 240.484375 695.632812 234.457031 695.757812 228.425781 C 695.8125 226.554688 698.605469 226.46875 698.742188 228.367188 Z M 698.742188 228.367188 "/><path style=" stroke:none;fill-rule:nonzero;fill:#740000;fill-opacity:1;" d="M 690.277344 61.332031 C 690.171875 64 688.265625 66.046875 688.503906 68.808594 C 688.695312 71 692.871094 73.390625 702.351562 73.382812 C 711.832031 73.390625 716.007812 71 716.199219 68.808594 C 716.4375 66.046875 714.53125 64 714.425781 61.332031 C 714.269531 57.34375 713.773438 19.382812 713.59375 0.960938 L 691.113281 0.960938 C 690.933594 19.382812 690.4375 57.34375 690.277344 61.332031 Z M 690.277344 61.332031 "/><path style=" stroke:none;fill-rule:nonzero;fill:#ffffff;fill-opacity:1;" d="M 695.761719 9.140625 C 696.144531 27.21875 695.488281 45.257812 695.523438 63.335938 C 695.539062 64.105469 696.136719 64.753906 696.917969 64.804688 C 697.742188 64.859375 698.453125 64.238281 698.507812 63.414062 C 698.910156 57.394531 699.125 51.367188 699.285156 45.335938 C 699.683594 30.550781 699.648438 15.742188 699.148438 0.960938 L 695.695312 0.960938 C 695.707031 3.6875 695.734375 6.414062 695.761719 9.140625 Z M 695.761719 9.140625 "/><path style=" stroke:none;fill-rule:nonzero;fill:#740000;fill-opacity:1;" d="M 715.816406 787.132812 C 710.667969 788.464844 706.683594 789.03125 702.351562 789.070312 C 698.019531 789.03125 694.089844 788.464844 688.886719 787.132812 C 686.203125 786.445312 685.304688 788.507812 685.789062 789.847656 C 686.933594 793.007812 691.078125 795.230469 691.171875 799.234375 C 691.191406 799.964844 691.164062 803.671875 691.113281 809.039062 L 713.59375 809.039062 C 713.539062 803.671875 713.515625 799.964844 713.53125 799.234375 C 713.625 795.230469 717.773438 793.007812 718.914062 789.847656 C 719.398438 788.507812 718.5 786.4375 715.816406 787.132812 Z M 715.816406 787.132812 "/><path style=" stroke:none;fill-rule:nonzero;fill:#ffffff;fill-opacity:1;" d="M 695.757812 799.132812 C 695.6875 802.4375 695.679688 805.738281 695.695312 809.039062 L 699.148438 809.039062 C 699.035156 805.714844 698.902344 802.394531 698.742188 799.078125 C 698.605469 797.175781 695.8125 797.265625 695.757812 799.132812 Z M 695.757812 799.132812 "/><path style=" stroke:none;fill-rule:nonzero;fill:#740000;fill-opacity:1;" d="M 676.574219 539.957031 C 671.398438 543.777344 662.546875 541.171875 656.878906 533.488281 C 648.070312 521.546875 635.632812 490.035156 631.261719 474.765625 C 651.90625 490.933594 669.8125 509.539062 675.789062 518.964844 C 681.765625 528.390625 680.28125 537.214844 676.574219 539.957031 Z M 676.574219 539.957031 "/><g clip-rule="nonzero" clip-path="url(#70df917713)"><path style=" stroke:none;fill-rule:nonzero;fill:#740000;fill-opacity:1;" d="M 621.015625 540.097656 C 621.015625 540.097656 648.851562 539.058594 664.792969 543.417969 C 674.003906 545.933594 678.308594 549.082031 677.683594 553.242188 C 677.089844 557.199219 670.203125 559.242188 661.621094 557.949219 C 653.769531 556.765625 633.273438 548.566406 621.015625 540.097656 Z M 621.015625 540.097656 "/></g><g mask="url(#2fb00c854d)" transform="matrix(1,0,0,1,647,499)"><g clip-path="url(#823a9d76a8)"><g clip-rule="nonzero" clip-path="url(#09eac20923)"><path style=" stroke:none;fill-rule:nonzero;fill:#ffffff;fill-opacity:1;" d="M 2.519531 0.703125 C 10.527344 12.773438 19.515625 24.183594 28.257812 35.734375 C 28.832031 36.484375 28.691406 37.558594 27.9375 38.132812 C 27.1875 38.707031 26.113281 38.566406 25.539062 37.816406 C 21.339844 31.859375 17.15625 25.890625 13.027344 19.878906 C 8.917969 13.863281 4.804688 7.867188 1.0625 1.597656 C 0.523438 0.644531 1.894531 -0.226562 2.519531 0.703125 Z M 2.519531 0.703125 "/></g></g><mask id="2fb00c854d"><g filter="url(#9388fcb2ef)"><rect x="0" width="1440" y="0" height="809.999993" style="fill:#000000;fill-opacity:0.98;stroke:none;"/></g></mask></g><g mask="url(#edb15aa4e4)" transform="matrix(1,0,0,1,648,546)"><g clip-path="url(#f4121cf543)"><g clip-rule="nonzero" clip-path="url(#9e2fdb4d9e)"><path style=" stroke:none;fill-rule:nonzero;fill:#ffffff;fill-opacity:1;" d="M 1.527344 0.675781 C 9.777344 1.890625 18.023438 3.414062 26.195312 5.0625 C 28.03125 5.488281 27.511719 8.164062 25.640625 7.863281 C 17.546875 5.75 9.464844 3.765625 1.273438 2.078125 C 0.390625 1.875 0.613281 0.5625 1.527344 0.675781 Z M 1.527344 0.675781 "/></g></g><mask id="edb15aa4e4"><g filter="url(#9388fcb2ef)"><rect x="0" width="1440" y="0" height="809.999993" style="fill:#000000;fill-opacity:0.98;stroke:none;"/></g></mask></g><path style=" stroke:none;fill-rule:nonzero;fill:#740000;fill-opacity:1;" d="M 676.574219 304.894531 C 671.398438 308.71875 662.546875 306.109375 656.878906 298.425781 C 648.070312 286.484375 635.632812 254.972656 631.261719 239.703125 C 651.90625 255.871094 669.8125 274.480469 675.789062 283.902344 C 681.765625 293.328125 680.28125 302.152344 676.574219 304.894531 Z M 676.574219 304.894531 "/><g clip-rule="nonzero" clip-path="url(#526b9f6ff0)"><path style=" stroke:none;fill-rule:nonzero;fill:#740000;fill-opacity:1;" d="M 621.015625 305.035156 C 621.015625 305.035156 648.851562 303.996094 664.792969 308.355469 C 674.003906 310.871094 678.308594 314.023438 677.683594 318.179688 C 677.089844 322.140625 670.203125 324.183594 661.621094 322.890625 C 653.769531 321.707031 633.273438 313.503906 621.015625 305.035156 Z M 621.015625 305.035156 "/></g><g mask="url(#607a8e3c34)" transform="matrix(1,0,0,1,647,264)"><g clip-path="url(#77638f00d7)"><g clip-rule="nonzero" clip-path="url(#124488de6b)"><path style=" stroke:none;fill-rule:nonzero;fill:#ffffff;fill-opacity:1;" d="M 2.519531 0.640625 C 10.527344 12.710938 19.515625 24.125 28.257812 35.671875 C 28.832031 36.421875 28.691406 37.496094 27.9375 38.074219 C 27.1875 38.648438 26.113281 38.503906 25.539062 37.753906 C 21.339844 31.800781 17.15625 25.832031 13.027344 19.820312 C 8.917969 13.800781 4.804688 7.804688 1.0625 1.539062 C 0.523438 0.582031 1.894531 -0.289062 2.519531 0.640625 Z M 2.519531 0.640625 "/></g></g><mask id="607a8e3c34"><g filter="url(#9388fcb2ef)"><rect x="0" width="1440" y="0" height="809.999993" style="fill:#000000;fill-opacity:0.98;stroke:none;"/></g></mask></g><g mask="url(#83d0a87580)" transform="matrix(1,0,0,1,648,311)"><g clip-path="url(#f4bad361b7)"><g clip-rule="nonzero" clip-path="url(#f7e6fc23ee)"><path style=" stroke:none;fill-rule:nonzero;fill:#ffffff;fill-opacity:1;" d="M 1.527344 0.617188 C 9.777344 1.828125 18.023438 3.355469 26.195312 5 C 28.03125 5.429688 27.511719 8.101562 25.640625 7.800781 C 17.546875 5.691406 9.464844 3.703125 1.273438 2.019531 C 0.390625 1.816406 0.613281 0.5 1.527344 0.617188 Z M 1.527344 0.617188 "/></g></g><mask id="83d0a87580"><g filter="url(#9388fcb2ef)"><rect x="0" width="1440" y="0" height="809.999993" style="fill:#000000;fill-opacity:0.98;stroke:none;"/></g></mask></g><path style=" stroke:none;fill-rule:nonzero;fill:#740000;fill-opacity:1;" d="M 676.574219 779.039062 C 671.398438 782.863281 662.546875 780.257812 656.878906 772.570312 C 648.070312 760.632812 635.632812 729.117188 631.261719 713.847656 C 651.90625 730.019531 669.8125 748.625 675.789062 758.050781 C 681.765625 767.472656 680.28125 776.296875 676.574219 779.039062 Z M 676.574219 779.039062 "/><g clip-rule="nonzero" clip-path="url(#bd860d4a4e)"><path style=" stroke:none;fill-rule:nonzero;fill:#740000;fill-opacity:1;" d="M 621.015625 779.183594 C 621.015625 779.183594 648.851562 778.140625 664.792969 782.5 C 674.003906 785.019531 678.308594 788.167969 677.683594 792.328125 C 677.089844 796.285156 670.203125 798.328125 661.621094 797.035156 C 653.769531 795.851562 633.273438 787.648438 621.015625 779.183594 Z M 621.015625 779.183594 "/></g><g mask="url(#42cf7736cd)" transform="matrix(1,0,0,1,647,738)"><g clip-path="url(#5e33ce5613)"><g clip-rule="nonzero" clip-path="url(#8d79e85641)"><path style=" stroke:none;fill-rule:nonzero;fill:#ffffff;fill-opacity:1;" d="M 2.519531 0.785156 C 10.527344 12.855469 19.515625 24.269531 28.257812 35.816406 C 28.832031 36.570312 28.691406 37.644531 27.9375 38.21875 C 27.1875 38.792969 26.113281 38.648438 25.539062 37.898438 C 21.339844 31.945312 17.15625 25.976562 13.027344 19.964844 C 8.917969 13.945312 4.804688 7.953125 1.0625 1.683594 C 0.523438 0.726562 1.894531 -0.144531 2.519531 0.785156 Z M 2.519531 0.785156 "/></g></g><mask id="42cf7736cd"><g filter="url(#9388fcb2ef)"><rect x="0" width="1440" y="0" height="809.999993" style="fill:#000000;fill-opacity:0.98;stroke:none;"/></g></mask></g><g mask="url(#03dd19c058)" transform="matrix(1,0,0,1,648,785)"><g clip-path="url(#38189dcc66)"><g clip-rule="nonzero" clip-path="url(#24ca3d35eb)"><path style=" stroke:none;fill-rule:nonzero;fill:#ffffff;fill-opacity:1;" d="M 1.527344 0.761719 C 9.777344 1.976562 18.023438 3.5 26.195312 5.148438 C 28.03125 5.574219 27.511719 8.246094 25.640625 7.945312 C 17.546875 5.835938 9.464844 3.847656 1.273438 2.164062 C 0.390625 1.960938 0.613281 0.644531 1.527344 0.761719 Z M 1.527344 0.761719 "/></g></g><mask id="03dd19c058"><g filter="url(#9388fcb2ef)"><rect x="0" width="1440" y="0" height="809.999993" style="fill:#000000;fill-opacity:0.98;stroke:none;"/></g></mask></g><path style=" stroke:none;fill-rule:nonzero;fill:#740000;fill-opacity:1;" d="M 679.894531 643.082031 C 675.972656 646 669.246094 644.039062 664.921875 638.210938 C 658.203125 629.160156 648.691406 605.25 645.339844 593.660156 C 661.054688 605.898438 674.695312 619.996094 679.253906 627.140625 C 683.816406 634.289062 682.707031 640.992188 679.894531 643.082031 Z M 679.894531 643.082031 "/><g mask="url(#3a03f7028a)" transform="matrix(1,0,0,1,657,611)"><g clip-path="url(#dd1486bab4)"><g clip-rule="nonzero" clip-path="url(#2058d7d03c)"><path style=" stroke:none;fill-rule:nonzero;fill:#ffffff;fill-opacity:1;" d="M 2.445312 1.453125 C 8.277344 10.265625 14.863281 18.578125 21.25 27.003906 C 21.726562 27.628906 21.609375 28.527344 20.984375 29.003906 C 20.359375 29.484375 19.464844 29.367188 18.984375 28.742188 C 14.363281 22.238281 9.726562 15.738281 5.277344 9.105469 C 3.800781 6.894531 2.347656 4.660156 0.972656 2.363281 C 0.417969 1.390625 1.8125 0.511719 2.445312 1.453125 Z M 2.445312 1.453125 "/></g></g><mask id="3a03f7028a"><g filter="url(#9388fcb2ef)"><rect x="0" width="1440" y="0" height="809.999993" style="fill:#000000;fill-opacity:0.98;stroke:none;"/></g></mask></g><path style=" stroke:none;fill-rule:nonzero;fill:#740000;fill-opacity:1;" d="M 679.894531 213.125 C 675.972656 216.039062 669.246094 214.078125 664.921875 208.253906 C 658.203125 199.203125 648.691406 175.292969 645.339844 163.703125 C 661.054688 175.941406 674.695312 190.035156 679.253906 197.183594 C 683.816406 204.328125 682.707031 211.035156 679.894531 213.125 Z M 679.894531 213.125 "/><g mask="url(#c63c7f104b)" transform="matrix(1,0,0,1,657,181)"><g clip-path="url(#8298a7ec0e)"><g clip-rule="nonzero" clip-path="url(#ab27b1babb)"><path style=" stroke:none;fill-rule:nonzero;fill:#ffffff;fill-opacity:1;" d="M 2.445312 1.492188 C 8.277344 10.308594 14.863281 18.621094 21.25 27.046875 C 21.726562 27.671875 21.609375 28.566406 20.984375 29.046875 C 20.359375 29.527344 19.464844 29.40625 18.984375 28.78125 C 14.363281 22.28125 9.726562 15.78125 5.277344 9.148438 C 3.800781 6.9375 2.347656 4.703125 0.972656 2.40625 C 0.417969 1.433594 1.8125 0.550781 2.445312 1.492188 Z M 2.445312 1.492188 "/></g></g><mask id="c63c7f104b"><g filter="url(#9388fcb2ef)"><rect x="0" width="1440" y="0" height="809.999993" style="fill:#000000;fill-opacity:0.98;stroke:none;"/></g></mask></g><path style=" stroke:none;fill-rule:nonzero;fill:#740000;fill-opacity:1;" d="M 725.441406 401.132812 C 730.617188 404.957031 739.46875 402.347656 745.136719 394.664062 C 753.945312 382.722656 766.382812 351.210938 770.753906 335.941406 C 750.109375 352.109375 732.203125 370.71875 726.226562 380.140625 C 720.25 389.566406 721.734375 398.390625 725.441406 401.132812 Z M 725.441406 401.132812 "/><g clip-rule="nonzero" clip-path="url(#31b18755d4)"><path style=" stroke:none;fill-rule:nonzero;fill:#740000;fill-opacity:1;" d="M 781 401.273438 C 781 401.273438 753.164062 400.234375 737.222656 404.59375 C 728.011719 407.109375 723.707031 410.261719 724.332031 414.417969 C 724.925781 418.378906 731.8125 420.421875 740.394531 419.128906 C 748.246094 417.945312 768.742188 409.742188 781 401.273438 Z M 781 401.273438 "/></g><g mask="url(#20b6416c2c)" transform="matrix(1,0,0,1,726,360)"><g clip-path="url(#ee48071727)"><g clip-rule="nonzero" clip-path="url(#8689303f13)"><path style=" stroke:none;fill-rule:nonzero;fill:#ffffff;fill-opacity:1;" d="M 27.953125 1.777344 C 20.386719 14.21875 11.832031 26.003906 3.515625 37.9375 C 2.160156 39.738281 -0.527344 37.875 0.71875 35.964844 C 7.332031 27.296875 13.957031 18.640625 20.335938 9.800781 C 22.453125 6.863281 24.539062 3.898438 26.5 0.875 C 27.109375 -0.03125 28.5 0.800781 27.953125 1.777344 Z M 27.953125 1.777344 "/></g></g><mask id="20b6416c2c"><g filter="url(#9388fcb2ef)"><rect x="0" width="1440" y="0" height="809.999993" style="fill:#000000;fill-opacity:0.98;stroke:none;"/></g></mask></g><g mask="url(#f73870b786)" transform="matrix(1,0,0,1,726,407)"><g clip-path="url(#f1fc576a9d)"><g clip-rule="nonzero" clip-path="url(#97557e2217)"><path style=" stroke:none;fill-rule:nonzero;fill:#ffffff;fill-opacity:1;" d="M 26.742188 2.257812 C 18.578125 3.9375 10.519531 5.910156 2.453125 8.019531 C 0.617188 8.429688 -0.078125 5.796875 1.742188 5.257812 C 9.9375 3.597656 18.210938 2.074219 26.488281 0.855469 C 27.390625 0.734375 27.640625 2.046875 26.742188 2.257812 Z M 26.742188 2.257812 "/></g></g><mask id="f73870b786"><g filter="url(#9388fcb2ef)"><rect x="0" width="1440" y="0" height="809.999993" style="fill:#000000;fill-opacity:0.98;stroke:none;"/></g></mask></g><path style=" stroke:none;fill-rule:nonzero;fill:#740000;fill-opacity:1;" d="M 725.441406 206.351562 C 730.617188 210.175781 739.46875 207.570312 745.136719 199.882812 C 753.945312 187.945312 766.382812 156.433594 770.753906 141.164062 C 750.109375 157.332031 732.203125 175.9375 726.226562 185.363281 C 720.25 194.789062 721.734375 203.613281 725.441406 206.351562 Z M 725.441406 206.351562 "/><g clip-rule="nonzero" clip-path="url(#27711f2ab3)"><path style=" stroke:none;fill-rule:nonzero;fill:#740000;fill-opacity:1;" d="M 781 206.496094 C 781 206.496094 753.164062 205.457031 737.222656 209.8125 C 728.011719 212.332031 723.707031 215.480469 724.332031 219.640625 C 724.925781 223.597656 731.8125 225.640625 740.394531 224.347656 C 748.246094 223.164062 768.742188 214.964844 781 206.496094 Z M 781 206.496094 "/></g><g mask="url(#01c9e97a53)" transform="matrix(1,0,0,1,726,165)"><g clip-path="url(#f05e504c6e)"><g clip-rule="nonzero" clip-path="url(#79a6541d7a)"><path style=" stroke:none;fill-rule:nonzero;fill:#ffffff;fill-opacity:1;" d="M 27.953125 1.996094 C 20.386719 14.441406 11.832031 26.222656 3.515625 38.15625 C 2.160156 39.957031 -0.527344 38.097656 0.71875 36.1875 C 7.332031 27.519531 13.957031 18.859375 20.335938 10.023438 C 22.453125 7.082031 24.539062 4.121094 26.5 1.09375 C 27.109375 0.1875 28.5 1.023438 27.953125 1.996094 Z M 27.953125 1.996094 "/></g></g><mask id="01c9e97a53"><g filter="url(#9388fcb2ef)"><rect x="0" width="1440" y="0" height="809.999993" style="fill:#000000;fill-opacity:0.98;stroke:none;"/></g></mask></g><g mask="url(#d04ee9c3dd)" transform="matrix(1,0,0,1,726,212)"><g clip-path="url(#5fc22fefbd)"><g clip-rule="nonzero" clip-path="url(#858efcb74e)"><path style=" stroke:none;fill-rule:nonzero;fill:#ffffff;fill-opacity:1;" d="M 26.742188 2.476562 C 18.578125 4.160156 10.519531 6.132812 2.453125 8.242188 C 0.617188 8.652344 -0.078125 6.015625 1.742188 5.480469 C 9.9375 3.820312 18.210938 2.292969 26.488281 1.074219 C 27.390625 0.957031 27.640625 2.265625 26.742188 2.476562 Z M 26.742188 2.476562 "/></g></g><mask id="d04ee9c3dd"><g filter="url(#9388fcb2ef)"><rect x="0" width="1440" y="0" height="809.999993" style="fill:#000000;fill-opacity:0.98;stroke:none;"/></g></mask></g><path style=" stroke:none;fill-rule:nonzero;fill:#740000;fill-opacity:1;" d="M 725.441406 638.195312 C 730.617188 642.019531 739.46875 639.414062 745.136719 631.726562 C 753.945312 619.789062 766.382812 588.277344 770.753906 573.007812 C 750.109375 589.175781 732.203125 607.78125 726.226562 617.207031 C 720.25 626.632812 721.734375 635.457031 725.441406 638.195312 Z M 725.441406 638.195312 "/><g clip-rule="nonzero" clip-path="url(#c0c8a1227e)"><path style=" stroke:none;fill-rule:nonzero;fill:#740000;fill-opacity:1;" d="M 781 638.339844 C 781 638.339844 753.164062 637.300781 737.222656 641.65625 C 728.011719 644.175781 723.707031 647.324219 724.332031 651.484375 C 724.925781 655.441406 731.8125 657.484375 740.394531 656.191406 C 748.246094 655.007812 768.742188 646.808594 781 638.339844 Z M 781 638.339844 "/></g><g mask="url(#05994d2e1e)" transform="matrix(1,0,0,1,726,597)"><g clip-path="url(#85dd759895)"><g clip-rule="nonzero" clip-path="url(#aedd1acf89)"><path style=" stroke:none;fill-rule:nonzero;fill:#ffffff;fill-opacity:1;" d="M 27.953125 1.839844 C 20.386719 14.285156 11.832031 26.066406 3.515625 38 C 2.160156 39.800781 -0.527344 37.941406 0.71875 36.03125 C 7.332031 27.363281 13.957031 18.703125 20.335938 9.867188 C 22.453125 6.925781 24.539062 3.964844 26.5 0.9375 C 27.109375 0.03125 28.5 0.867188 27.953125 1.839844 Z M 27.953125 1.839844 "/></g></g><mask id="05994d2e1e"><g filter="url(#9388fcb2ef)"><rect x="0" width="1440" y="0" height="809.999993" style="fill:#000000;fill-opacity:0.98;stroke:none;"/></g></mask></g><g mask="url(#a853fa35fc)" transform="matrix(1,0,0,1,726,644)"><g clip-path="url(#1900cbb3e6)"><g clip-rule="nonzero" clip-path="url(#6134d0d847)"><path style=" stroke:none;fill-rule:nonzero;fill:#ffffff;fill-opacity:1;" d="M 26.742188 2.320312 C 18.578125 4.003906 10.519531 5.976562 2.453125 8.085938 C 0.617188 8.496094 -0.078125 5.859375 1.742188 5.324219 C 9.9375 3.664062 18.210938 2.136719 26.488281 0.917969 C 27.390625 0.800781 27.640625 2.109375 26.742188 2.320312 Z M 26.742188 2.320312 "/></g></g><mask id="a853fa35fc"><g filter="url(#9388fcb2ef)"><rect x="0" width="1440" y="0" height="809.999993" style="fill:#000000;fill-opacity:0.98;stroke:none;"/></g></mask></g><path style=" stroke:none;fill-rule:nonzero;fill:#740000;fill-opacity:1;" d="M 723.9375 785.253906 C 727.863281 788.171875 734.589844 786.207031 738.914062 780.382812 C 745.628906 771.332031 755.144531 747.421875 758.496094 735.832031 C 742.78125 748.070312 729.140625 762.164062 724.578125 769.3125 C 720.019531 776.457031 721.125 783.164062 723.9375 785.253906 Z M 723.9375 785.253906 "/><g mask="url(#02495dd1d3)" transform="matrix(1,0,0,1,725,754)"><g clip-path="url(#612b611c3b)"><g clip-rule="nonzero" clip-path="url(#e4421b0cb6)"><path style=" stroke:none;fill-rule:nonzero;fill:#ffffff;fill-opacity:1;" d="M 20.863281 1.535156 C 15.304688 10.613281 9 19.179688 2.878906 27.871094 C 2.421875 28.511719 1.53125 28.664062 0.890625 28.207031 C 0.246094 27.75 0.0976562 26.859375 0.554688 26.21875 C 5.390625 19.890625 10.242188 13.582031 14.902344 7.128906 C 16.449219 4.984375 17.964844 2.824219 19.390625 0.617188 C 20.019531 -0.304688 21.417969 0.550781 20.863281 1.535156 Z M 20.863281 1.535156 "/></g></g><mask id="02495dd1d3"><g filter="url(#9388fcb2ef)"><rect x="0" width="1440" y="0" height="809.999993" style="fill:#000000;fill-opacity:0.98;stroke:none;"/></g></mask></g><path style=" stroke:none;fill-rule:nonzero;fill:#740000;fill-opacity:1;" d="M 724.140625 68.242188 C 728.0625 71.15625 734.792969 69.195312 739.113281 63.371094 C 745.832031 54.320312 755.34375 30.410156 758.695312 18.820312 C 742.984375 31.058594 729.339844 45.152344 724.78125 52.300781 C 720.21875 59.445312 721.328125 66.152344 724.140625 68.242188 Z M 724.140625 68.242188 "/><g mask="url(#ed13281ef3)" transform="matrix(1,0,0,1,725,36)"><g clip-path="url(#02f692b4f2)"><g clip-rule="nonzero" clip-path="url(#25ace15d2e)"><path style=" stroke:none;fill-rule:nonzero;fill:#ffffff;fill-opacity:1;" d="M 21.066406 2.523438 C 15.507812 11.601562 9.199219 20.167969 3.082031 28.859375 C 2.625 29.5 1.734375 29.648438 1.089844 29.195312 C 0.449219 28.738281 0.300781 27.847656 0.757812 27.203125 C 5.589844 20.878906 10.441406 14.566406 15.105469 8.117188 C 16.648438 5.972656 18.164062 3.808594 19.59375 1.605469 C 20.21875 0.683594 21.621094 1.539062 21.066406 2.523438 Z M 21.066406 2.523438 "/></g></g><mask id="ed13281ef3"><g filter="url(#9388fcb2ef)"><rect x="0" width="1440" y="0" height="809.999993" style="fill:#000000;fill-opacity:0.98;stroke:none;"/></g></mask></g></g></svg>