<svg xmlns="http://www.w3.org/2000/svg" xmlns:xlink="http://www.w3.org/1999/xlink" width="100" zoomAndPan="magnify" viewBox="0 0 75 74.999997" height="100" preserveAspectRatio="xMidYMid meet" version="1.2"><defs><clipPath id="8a77e68960"><path d="M 0.09375 0 L 40 0 L 40 40 L 0.09375 40 Z M 0.09375 0 "/></clipPath><clipPath id="220cce976f"><path d="M 0.09375 35 L 40 35 L 40 75 L 0.09375 75 Z M 0.09375 35 "/></clipPath><clipPath id="8c0e8fab1c"><rect x="0" width="31" y="0" height="30"/></clipPath></defs><g id="e50be3d6f6"><g clip-rule="nonzero" clip-path="url(#8a77e68960)"><path style=" stroke:none;fill-rule:evenodd;fill:#e8c17c;fill-opacity:1;" d="M 3.1875 37.5 C 3.1875 18.515625 18.5625 3.101562 37.5 3.101562 L 39.046875 3.101562 L 39.046875 0.0078125 L 37.5 0.0078125 C 16.855469 0.0078125 0.09375 16.804688 0.09375 37.5 L 0.09375 39.046875 L 3.1875 39.046875 Z M 3.1875 37.5 "/></g><path style=" stroke:none;fill-rule:evenodd;fill:#740000;fill-opacity:1;" d="M 37.5 3.101562 C 56.4375 3.101562 71.808594 18.515625 71.808594 37.5 L 71.808594 39.046875 L 74.90625 39.046875 L 74.90625 37.5 C 74.90625 16.804688 58.144531 0.0078125 37.5 0.0078125 L 35.949219 0.0078125 L 35.949219 3.101562 Z M 37.5 3.101562 "/><path style=" stroke:none;fill-rule:evenodd;fill:#740000;fill-opacity:1;" d="M 71.808594 37.5 C 71.808594 56.484375 56.4375 71.898438 37.5 71.898438 L 35.949219 71.898438 L 35.949219 74.992188 L 37.5 74.992188 C 58.144531 74.992188 74.90625 58.195312 74.90625 37.5 L 74.90625 35.953125 L 71.808594 35.953125 Z M 71.808594 37.5 "/><g clip-rule="nonzero" clip-path="url(#220cce976f)"><path style=" stroke:none;fill-rule:evenodd;fill:#740000;fill-opacity:1;" d="M 37.5 71.898438 C 18.5625 71.898438 3.1875 56.484375 3.1875 37.5 L 3.1875 35.953125 L 0.09375 35.953125 L 0.09375 37.5 C 0.09375 58.195312 16.855469 74.992188 37.5 74.992188 L 39.046875 74.992188 L 39.046875 71.898438 Z M 37.5 71.898438 "/></g><g transform="matrix(1,0,0,1,22,19)"><g clip-path="url(#8c0e8fab1c)"><g style="fill:#740000;fill-opacity:1;"><g transform="translate(0.780199, 22.134694)"><path style="stroke:none" d="M 3.515625 -7.84375 L 5.671875 -7.84375 C 6.515625 -8.375 6.9375 -9.125 6.9375 -10.09375 C 6.9375 -11.175781 6.328125 -11.71875 5.109375 -11.71875 C 4.660156 -11.71875 4.285156 -11.664062 3.984375 -11.5625 C 3.679688 -11.46875 3.503906 -11.367188 3.453125 -11.265625 C 3.410156 -11.160156 3.390625 -10.992188 3.390625 -10.765625 L 3.390625 -9.25 L 1.234375 -9.40625 L 1.234375 -12.765625 C 2.640625 -13.460938 4.03125 -13.8125 5.40625 -13.8125 C 6.78125 -13.8125 7.804688 -13.5 8.484375 -12.875 C 9.160156 -12.257812 9.5 -11.453125 9.5 -10.453125 C 9.5 -9.722656 9.320312 -9.0625 8.96875 -8.46875 C 8.625 -7.875 8.164062 -7.394531 7.59375 -7.03125 C 9.007812 -6.570312 9.71875 -5.570312 9.71875 -4.03125 C 9.71875 -2.75 9.316406 -1.710938 8.515625 -0.921875 C 7.710938 -0.128906 6.53125 0.265625 4.96875 0.265625 C 4.195312 0.265625 3.425781 0.160156 2.65625 -0.046875 C 1.894531 -0.253906 1.289062 -0.5 0.84375 -0.78125 L 1.578125 -2.78125 C 2.679688 -2.15625 3.78125 -1.84375 4.875 -1.84375 C 6.40625 -1.84375 7.171875 -2.523438 7.171875 -3.890625 C 7.171875 -4.585938 6.9375 -5.101562 6.46875 -5.4375 C 6.007812 -5.769531 5.226562 -5.9375 4.125 -5.9375 L 3.328125 -5.9375 Z M 3.515625 -7.84375 "/></g></g><g style="fill:#740000;fill-opacity:1;"><g transform="translate(10.920856, 22.134694)"><path style="stroke:none" d="M 2.3125 2.3125 L 0.171875 1.515625 L 6.609375 -15.875 L 8.796875 -15.09375 Z M 2.3125 2.3125 "/></g></g><g style="fill:#740000;fill-opacity:1;"><g transform="translate(19.294255, 22.134694)"><path style="stroke:none" d="M 9.296875 -11.546875 L 4.484375 -11.546875 L 4.0625 -8.328125 C 5.632812 -8.210938 6.910156 -7.800781 7.890625 -7.09375 C 8.878906 -6.382812 9.375 -5.335938 9.375 -3.953125 C 9.375 -2.816406 8.992188 -1.832031 8.234375 -1 C 7.484375 -0.175781 6.3125 0.234375 4.71875 0.234375 C 3.925781 0.234375 3.15625 0.128906 2.40625 -0.078125 C 1.65625 -0.296875 1.054688 -0.539062 0.609375 -0.8125 L 1.453125 -2.75 C 2.546875 -2.144531 3.597656 -1.84375 4.609375 -1.84375 C 6.035156 -1.84375 6.75 -2.53125 6.75 -3.90625 C 6.75 -5.625 5.070312 -6.484375 1.71875 -6.484375 L 2.625 -13.546875 L 6.8125 -13.546875 C 7.132812 -13.546875 7.296875 -13.742188 7.296875 -14.140625 L 7.296875 -15.03125 L 9.296875 -14.890625 Z M 9.296875 -11.546875 "/></g></g></g></g></g></svg>