<svg xmlns="http://www.w3.org/2000/svg" xmlns:xlink="http://www.w3.org/1999/xlink" width="100" zoomAndPan="magnify" viewBox="0 0 75 74.999997" height="100" preserveAspectRatio="xMidYMid meet" version="1.2"><defs><clipPath id="9222be4340"><path d="M 2 19 L 73 19 L 73 63 L 2 63 Z M 2 19 "/></clipPath><clipPath id="7cd0e51db1"><path d="M 70.992188 17.027344 L 73.050781 60.480469 L 4.128906 63.75 L 2.070312 20.296875 Z M 70.992188 17.027344 "/></clipPath><clipPath id="1ac4fb1ff3"><path d="M 70.992188 17.027344 L 73.050781 60.480469 L 4.128906 63.75 L 2.070312 20.296875 Z M 70.992188 17.027344 "/></clipPath><clipPath id="3c999ab96b"><path d="M 70.992188 17.050781 L 73.042969 60.316406 L 4.003906 63.589844 L 1.949219 20.324219 Z M 70.992188 17.050781 "/></clipPath><clipPath id="ef2cbc2b07"><rect x="0" width="45" y="0" height="27"/></clipPath></defs><g id="3117b9225a"><g clip-rule="nonzero" clip-path="url(#9222be4340)"><g clip-rule="nonzero" clip-path="url(#7cd0e51db1)"><g clip-rule="nonzero" clip-path="url(#1ac4fb1ff3)"><g clip-rule="nonzero" clip-path="url(#3c999ab96b)"><path style=" stroke:none;fill-rule:nonzero;fill:#6ba25b;fill-opacity:1;" d="M 72.015625 38.628906 C 54.453125 39.460938 45.585938 15.117188 23.210938 19.652344 C 7.230469 22.890625 2.972656 41.902344 2.972656 41.902344 C 2.972656 41.902344 8.199219 60.28125 25.226562 62.140625 C 51.214844 64.980469 72.015625 38.628906 72.015625 38.628906 "/></g></g></g></g><g transform="matrix(1,0,0,1,7,26)"><g clip-path="url(#ef2cbc2b07)"><g style="fill:#fcfcfc;fill-opacity:1;"><g transform="translate(0.500001, 20.536028)"><path style="stroke:none" d="M 5.9375 -7.1875 L 9.6875 -7.1875 L 9.6875 -5.9375 L 5.9375 -5.9375 L 5.9375 -2.0625 L 4.671875 -2.0625 L 4.671875 -5.9375 L 0.953125 -5.9375 L 0.953125 -7.1875 L 4.671875 -7.1875 L 4.671875 -11.078125 L 5.9375 -11.078125 Z M 5.9375 -7.1875 "/></g><g transform="translate(11.14824, 20.536028)"><path style="stroke:none" d="M 6.5 0 L 5.03125 0 L 5.03125 -9.46875 C 5.03125 -10.257812 5.054688 -11.007812 5.109375 -11.71875 C 4.972656 -11.582031 4.828125 -11.445312 4.671875 -11.3125 C 4.515625 -11.175781 3.796875 -10.585938 2.515625 -9.546875 L 1.703125 -10.578125 L 5.234375 -13.296875 L 6.5 -13.296875 Z M 6.5 0 "/></g><g transform="translate(21.79648, 20.536028)"><path style="stroke:none" d="M 5.0625 -8.125 C 6.46875 -8.125 7.570312 -7.773438 8.375 -7.078125 C 9.175781 -6.378906 9.578125 -5.429688 9.578125 -4.234375 C 9.578125 -2.859375 9.140625 -1.773438 8.265625 -0.984375 C 7.390625 -0.203125 6.179688 0.1875 4.640625 0.1875 C 3.140625 0.1875 1.992188 -0.0507812 1.203125 -0.53125 L 1.203125 -1.984375 C 1.628906 -1.710938 2.15625 -1.5 2.78125 -1.34375 C 3.414062 -1.195312 4.039062 -1.125 4.65625 -1.125 C 5.71875 -1.125 6.546875 -1.375 7.140625 -1.875 C 7.734375 -2.375 8.03125 -3.101562 8.03125 -4.0625 C 8.03125 -5.914062 6.894531 -6.84375 4.625 -6.84375 C 4.039062 -6.84375 3.269531 -6.753906 2.3125 -6.578125 L 1.53125 -7.078125 L 2.03125 -13.296875 L 8.640625 -13.296875 L 8.640625 -11.90625 L 3.3125 -11.90625 L 2.984375 -7.90625 C 3.679688 -8.050781 4.375 -8.125 5.0625 -8.125 Z M 5.0625 -8.125 "/></g><g transform="translate(32.444719, 20.536028)"><path style="stroke:none" d="M 9.71875 -6.671875 C 9.71875 -4.367188 9.351562 -2.648438 8.625 -1.515625 C 7.90625 -0.378906 6.800781 0.1875 5.3125 0.1875 C 3.882812 0.1875 2.796875 -0.390625 2.046875 -1.546875 C 1.296875 -2.710938 0.921875 -4.421875 0.921875 -6.671875 C 0.921875 -8.984375 1.28125 -10.695312 2 -11.8125 C 2.726562 -12.9375 3.832031 -13.5 5.3125 -13.5 C 6.75 -13.5 7.84375 -12.914062 8.59375 -11.75 C 9.34375 -10.582031 9.71875 -8.890625 9.71875 -6.671875 Z M 2.453125 -6.671875 C 2.453125 -4.734375 2.675781 -3.320312 3.125 -2.4375 C 3.582031 -1.5625 4.3125 -1.125 5.3125 -1.125 C 6.320312 -1.125 7.050781 -1.566406 7.5 -2.453125 C 7.945312 -3.347656 8.171875 -4.753906 8.171875 -6.671875 C 8.171875 -8.578125 7.945312 -9.972656 7.5 -10.859375 C 7.050781 -11.753906 6.320312 -12.203125 5.3125 -12.203125 C 4.3125 -12.203125 3.582031 -11.757812 3.125 -10.875 C 2.675781 -10 2.453125 -8.597656 2.453125 -6.671875 Z M 2.453125 -6.671875 "/></g></g></g></g></g></svg>