<svg xmlns="http://www.w3.org/2000/svg" xmlns:xlink="http://www.w3.org/1999/xlink" width="100" zoomAndPan="magnify" viewBox="0 0 75 74.999997" height="100" preserveAspectRatio="xMidYMid meet" version="1.2"><defs><clipPath id="95b0a37441"><path d="M 14 17.289062 L 60 17.289062 L 60 53 L 14 53 Z M 14 17.289062 "/></clipPath><clipPath id="a4222f2f28"><path d="M 9.148438 45 L 67.648438 45 L 67.648438 57.789062 L 9.148438 57.789062 Z M 9.148438 45 "/></clipPath><clipPath id="fb0897be62"><path d="M 12 25 L 62 25 L 62 57.789062 L 12 57.789062 Z M 12 25 "/></clipPath></defs><g id="029a8841b3"><path style=" stroke:none;fill-rule:evenodd;fill:#96001a;fill-opacity:1;" d="M 4.636719 0.316406 L 71.023438 0.316406 C 73.402344 0.316406 75.347656 2.261719 75.347656 4.636719 L 75.347656 71.023438 C 75.347656 73.402344 73.402344 75.347656 71.023438 75.347656 L 4.636719 75.347656 C 2.261719 75.347656 0.316406 73.402344 0.316406 71.023438 L 0.316406 4.636719 C 0.316406 2.261719 2.261719 0.316406 4.636719 0.316406 Z M 4.636719 0.316406 "/><path style=" stroke:none;fill-rule:nonzero;fill:#f5e49c;fill-opacity:1;" d="M 4.636719 0 L 71.023438 0 C 72.300781 0 73.457031 0.523438 74.300781 1.363281 C 75.140625 2.203125 75.660156 3.363281 75.660156 4.636719 L 75.660156 71.023438 C 75.660156 72.300781 75.140625 73.457031 74.300781 74.300781 C 73.457031 75.140625 72.300781 75.660156 71.023438 75.660156 L 4.636719 75.660156 C 3.363281 75.660156 2.203125 75.140625 1.363281 74.300781 C 0.523438 73.457031 0 72.300781 0 71.023438 L 0 4.636719 C 0 3.363281 0.523438 2.203125 1.363281 1.363281 C 2.203125 0.523438 3.363281 0 4.636719 0 Z M 71.023438 0.628906 L 4.636719 0.628906 C 3.535156 0.628906 2.535156 1.082031 1.808594 1.808594 C 1.082031 2.535156 0.628906 3.535156 0.628906 4.636719 L 0.628906 71.023438 C 0.628906 72.125 1.082031 73.128906 1.808594 73.855469 C 2.535156 74.582031 3.535156 75.03125 4.636719 75.03125 L 71.023438 75.03125 C 72.125 75.03125 73.128906 74.582031 73.855469 73.855469 C 74.582031 73.128906 75.03125 72.125 75.03125 71.023438 L 75.03125 4.636719 C 75.03125 3.535156 74.582031 2.535156 73.855469 1.808594 C 73.128906 1.082031 72.125 0.628906 71.023438 0.628906 Z M 71.023438 0.628906 "/><path style=" stroke:none;fill-rule:nonzero;fill:#f5e49c;fill-opacity:1;" d="M 9.449219 3.40625 L 12.347656 3.40625 L 12.347656 4.867188 C 10.828125 4.867188 9.304688 4.867188 7.785156 4.867188 L 7.785156 2.277344 L 13.785156 2.277344 L 13.785156 4.710938 L 20.164062 4.710938 L 20.164062 2.433594 L 15.914062 2.433594 L 15.914062 3.578125 L 18.65625 3.578125 L 18.65625 3.738281 L 15.757812 3.738281 L 15.757812 2.277344 C 17.277344 2.277344 18.800781 2.277344 20.320312 2.277344 L 20.320312 4.867188 L 13.707031 4.867188 L 13.707031 4.789062 L 13.628906 4.789062 L 13.628906 2.433594 L 7.941406 2.433594 L 7.941406 4.710938 L 12.191406 4.710938 L 12.191406 3.5625 L 9.449219 3.5625 Z M 9.449219 3.40625 "/><path style=" stroke:none;fill-rule:nonzero;fill:#f5e49c;fill-opacity:1;" d="M 23.570312 3.40625 L 26.472656 3.40625 L 26.472656 4.867188 L 21.90625 4.867188 L 21.90625 2.277344 L 27.90625 2.277344 L 27.90625 4.710938 L 34.285156 4.710938 L 34.285156 2.433594 L 30.035156 2.433594 L 30.035156 3.578125 L 32.78125 3.578125 L 32.78125 3.738281 L 29.878906 3.738281 L 29.878906 2.277344 L 34.445312 2.277344 L 34.445312 4.867188 L 27.828125 4.867188 L 27.828125 4.789062 L 27.75 4.789062 L 27.75 2.433594 L 22.066406 2.433594 L 22.066406 4.710938 L 26.316406 4.710938 L 26.316406 3.5625 L 23.570312 3.5625 Z M 23.570312 3.40625 "/><path style=" stroke:none;fill-rule:nonzero;fill:#f5e49c;fill-opacity:1;" d="M 37.695312 3.40625 L 40.59375 3.40625 L 40.59375 4.867188 L 36.03125 4.867188 L 36.03125 2.277344 L 42.03125 2.277344 L 42.03125 4.710938 L 48.410156 4.710938 L 48.410156 2.433594 L 44.160156 2.433594 L 44.160156 3.578125 L 46.902344 3.578125 L 46.902344 3.738281 L 44.003906 3.738281 L 44.003906 2.277344 L 48.566406 2.277344 L 48.566406 4.867188 L 41.953125 4.867188 L 41.953125 4.789062 L 41.875 4.789062 L 41.875 2.433594 L 36.1875 2.433594 L 36.1875 4.710938 L 40.4375 4.710938 L 40.4375 3.5625 L 37.695312 3.5625 Z M 37.695312 3.40625 "/><path style=" stroke:none;fill-rule:nonzero;fill:#f5e49c;fill-opacity:1;" d="M 51.816406 3.40625 L 54.71875 3.40625 L 54.71875 4.867188 C 53.195312 4.867188 51.675781 4.867188 50.152344 4.867188 L 50.152344 2.277344 L 56.152344 2.277344 L 56.152344 4.710938 L 62.53125 4.710938 L 62.53125 2.433594 L 58.28125 2.433594 L 58.28125 3.578125 L 61.027344 3.578125 L 61.027344 3.738281 L 58.125 3.738281 L 58.125 2.277344 C 59.648438 2.277344 61.167969 2.277344 62.691406 2.277344 L 62.691406 4.867188 L 56.074219 4.867188 L 56.074219 4.789062 L 55.996094 4.789062 L 55.996094 2.433594 L 50.3125 2.433594 L 50.3125 4.710938 L 54.5625 4.710938 L 54.5625 3.5625 L 51.816406 3.5625 Z M 51.816406 3.40625 "/><path style=" stroke:none;fill-rule:nonzero;fill:#f5e49c;fill-opacity:1;" d="M 65.941406 3.40625 L 68.140625 3.40625 C 68.25 3.40625 68.359375 3.410156 68.46875 3.417969 C 68.578125 3.429688 68.6875 3.441406 68.796875 3.460938 L 68.875 3.472656 L 68.640625 4.914062 L 68.5625 4.902344 C 68.492188 4.890625 68.425781 4.882812 68.351562 4.875 C 68.28125 4.871094 68.214844 4.867188 68.140625 4.867188 L 64.277344 4.867188 L 64.277344 2.277344 C 64.722656 2.277344 68.019531 2.234375 68.144531 2.277344 C 68.523438 2.28125 68.855469 2.3125 69.183594 2.378906 C 69.511719 2.445312 69.828125 2.546875 70.179688 2.691406 L 70.183594 2.691406 C 70.28125 2.734375 70.375 2.777344 70.472656 2.824219 C 70.566406 2.871094 70.660156 2.921875 70.757812 2.976562 L 70.824219 3.015625 L 69.605469 5.125 C 69.691406 5.179688 69.769531 5.234375 69.84375 5.292969 C 69.941406 5.363281 70.03125 5.445312 70.125 5.535156 L 70.125 5.539062 C 70.261719 5.675781 70.375 5.8125 70.46875 5.953125 C 70.566406 6.097656 70.648438 6.25 70.730469 6.429688 L 70.730469 6.433594 C 70.804688 6.617188 70.859375 6.789062 70.894531 6.964844 C 70.929688 7.136719 70.945312 7.316406 70.949219 7.519531 L 70.949219 9.835938 L 73.226562 9.835938 L 73.226562 7.519531 C 73.222656 7.148438 73.191406 6.824219 73.128906 6.507812 C 73.0625 6.195312 72.964844 5.882812 72.824219 5.539062 C 72.789062 5.453125 72.75 5.367188 72.707031 5.285156 C 72.675781 5.222656 72.644531 5.164062 72.613281 5.101562 L 71.613281 5.664062 C 71.636719 5.707031 71.65625 5.75 71.679688 5.789062 C 71.710938 5.855469 71.742188 5.921875 71.769531 5.988281 L 71.769531 5.992188 C 71.878906 6.253906 71.953125 6.492188 72.003906 6.738281 C 72.054688 6.984375 72.078125 7.234375 72.082031 7.519531 L 72.082031 8.328125 L 71.921875 8.328125 L 71.921875 7.519531 C 71.921875 7.246094 71.898438 7.003906 71.851562 6.769531 C 71.800781 6.535156 71.730469 6.304688 71.625 6.050781 C 71.597656 5.984375 71.566406 5.921875 71.539062 5.859375 C 71.507812 5.796875 71.472656 5.734375 71.4375 5.671875 L 71.402344 5.605469 L 72.675781 4.886719 L 72.710938 4.957031 C 72.761719 5.042969 72.804688 5.128906 72.847656 5.214844 C 72.890625 5.300781 72.929688 5.386719 72.96875 5.480469 L 72.972656 5.480469 C 73.113281 5.832031 73.214844 6.152344 73.28125 6.480469 C 73.347656 6.804688 73.378906 7.136719 73.386719 7.519531 C 73.414062 7.601562 73.386719 9.695312 73.386719 9.992188 L 70.792969 9.992188 L 70.792969 7.519531 C 70.789062 7.328125 70.773438 7.160156 70.742188 6.996094 C 70.707031 6.832031 70.65625 6.671875 70.585938 6.492188 C 70.507812 6.324219 70.429688 6.179688 70.339844 6.042969 C 70.25 5.90625 70.144531 5.78125 70.011719 5.648438 C 69.921875 5.558594 69.839844 5.484375 69.75 5.417969 C 69.660156 5.347656 69.566406 5.285156 69.457031 5.222656 L 69.496094 5.152344 L 69.429688 5.113281 L 70.609375 3.074219 C 70.539062 3.035156 70.472656 3 70.402344 2.964844 C 70.3125 2.921875 70.222656 2.878906 70.121094 2.835938 C 69.777344 2.695312 69.46875 2.597656 69.152344 2.535156 C 68.835938 2.46875 68.511719 2.4375 68.140625 2.433594 L 64.433594 2.433594 L 64.433594 4.710938 L 68.140625 4.710938 C 68.222656 4.710938 68.296875 4.714844 68.367188 4.71875 C 68.414062 4.722656 68.460938 4.730469 68.511719 4.734375 L 68.695312 3.601562 C 68.617188 3.589844 68.539062 3.582031 68.457031 3.578125 C 68.355469 3.566406 68.246094 3.5625 68.140625 3.5625 L 65.941406 3.5625 Z M 65.941406 3.40625 "/><path style=" stroke:none;fill-rule:nonzero;fill:#f5e49c;fill-opacity:1;" d="M 72.253906 13.242188 L 72.253906 16.144531 L 70.792969 16.144531 L 70.792969 11.578125 C 71.65625 11.578125 72.523438 11.578125 73.386719 11.578125 L 73.386719 17.578125 L 70.949219 17.578125 L 70.949219 23.957031 L 73.226562 23.957031 L 73.226562 19.707031 L 72.082031 19.707031 L 72.082031 22.453125 L 71.921875 22.453125 L 71.921875 19.550781 L 73.386719 19.550781 L 73.386719 24.117188 L 70.792969 24.117188 L 70.792969 17.5 L 70.871094 17.5 L 70.871094 17.421875 L 73.226562 17.421875 L 73.226562 11.738281 L 70.949219 11.738281 L 70.949219 15.988281 L 72.097656 15.988281 L 72.097656 13.242188 Z M 72.253906 13.242188 "/><path style=" stroke:none;fill-rule:nonzero;fill:#f5e49c;fill-opacity:1;" d="M 72.253906 27.367188 L 72.253906 30.265625 L 70.792969 30.265625 L 70.792969 25.703125 L 73.386719 25.703125 L 73.386719 31.703125 L 70.949219 31.703125 L 70.949219 38.082031 L 73.226562 38.082031 L 73.226562 33.832031 L 72.082031 33.832031 L 72.082031 36.574219 L 71.921875 36.574219 L 71.921875 33.675781 L 73.386719 33.675781 L 73.386719 38.238281 L 70.792969 38.238281 L 70.792969 31.625 L 70.871094 31.625 L 70.871094 31.546875 L 73.226562 31.546875 L 73.226562 25.859375 L 70.949219 25.859375 L 70.949219 30.109375 L 72.097656 30.109375 L 72.097656 27.367188 Z M 72.253906 27.367188 "/><path style=" stroke:none;fill-rule:nonzero;fill:#f5e49c;fill-opacity:1;" d="M 72.253906 41.488281 L 72.253906 44.390625 L 70.792969 44.390625 L 70.792969 39.824219 L 73.386719 39.824219 L 73.386719 45.824219 L 70.949219 45.824219 L 70.949219 52.203125 L 73.226562 52.203125 L 73.226562 47.957031 L 72.082031 47.957031 L 72.082031 50.699219 L 71.921875 50.699219 L 71.921875 47.796875 L 73.386719 47.796875 L 73.386719 52.363281 L 70.792969 52.363281 L 70.792969 45.746094 L 70.871094 45.746094 L 70.871094 45.667969 L 73.226562 45.667969 L 73.226562 39.984375 L 70.949219 39.984375 L 70.949219 44.234375 L 72.097656 44.234375 L 72.097656 41.488281 Z M 72.253906 41.488281 "/><path style=" stroke:none;fill-rule:nonzero;fill:#f5e49c;fill-opacity:1;" d="M 72.253906 55.613281 L 72.253906 58.511719 L 70.792969 58.511719 L 70.792969 53.949219 L 73.386719 53.949219 L 73.386719 59.949219 L 70.949219 59.949219 L 70.949219 66.328125 L 73.226562 66.328125 L 73.226562 62.078125 L 72.082031 62.078125 L 72.082031 64.820312 L 71.921875 64.820312 L 71.921875 61.921875 L 73.386719 61.921875 L 73.386719 66.484375 L 70.792969 66.484375 L 70.792969 59.871094 L 70.871094 59.871094 L 70.871094 59.792969 L 73.226562 59.792969 L 73.226562 54.105469 L 70.949219 54.105469 L 70.949219 58.355469 L 72.097656 58.355469 L 72.097656 55.613281 Z M 72.253906 55.613281 "/><path style=" stroke:none;fill-rule:nonzero;fill:#f5e49c;fill-opacity:1;" d="M 71.921875 69.757812 C 71.808594 70.015625 71.6875 70.238281 71.546875 70.445312 C 71.40625 70.652344 71.246094 70.84375 71.046875 71.046875 C 70.871094 71.21875 70.703125 71.363281 70.523438 71.488281 C 70.347656 71.617188 70.160156 71.726562 69.9375 71.839844 L 69.867188 71.875 L 69.226562 70.5625 L 69.296875 70.527344 C 69.4375 70.453125 69.5625 70.382812 69.675781 70.300781 C 69.792969 70.21875 69.898438 70.125 70.011719 70.011719 C 70.144531 69.878906 70.25 69.753906 70.339844 69.617188 C 70.429688 69.484375 70.507812 69.339844 70.585938 69.167969 C 70.65625 68.992188 70.707031 68.832031 70.742188 68.667969 C 70.773438 68.503906 70.789062 68.339844 70.792969 68.148438 L 70.796875 68.070312 L 73.386719 68.074219 L 73.386719 68.15625 C 73.378906 68.53125 73.347656 68.863281 73.28125 69.1875 C 73.214844 69.515625 73.113281 69.832031 72.972656 70.179688 L 72.96875 70.183594 C 72.824219 70.515625 72.667969 70.800781 72.488281 71.066406 C 72.308594 71.335938 72.101562 71.582031 71.847656 71.84375 L 71.84375 71.847656 C 71.582031 72.101562 71.335938 72.308594 71.066406 72.488281 C 70.800781 72.667969 70.515625 72.824219 70.183594 72.96875 L 70.179688 72.972656 C 69.910156 73.082031 69.664062 73.164062 69.414062 73.230469 C 69.160156 73.292969 68.90625 73.335938 68.613281 73.363281 L 68.535156 73.371094 L 68.316406 70.945312 L 68.269531 70.949219 C 68.222656 70.949219 68.179688 70.949219 68.140625 70.949219 L 62.03125 70.949219 L 62.03125 73.226562 L 66.28125 73.226562 L 66.28125 72.082031 L 63.535156 72.082031 L 63.535156 71.921875 L 66.4375 71.921875 L 66.4375 73.386719 L 61.875 73.386719 L 61.875 70.792969 L 68.140625 70.792969 C 68.183594 70.792969 68.226562 70.792969 68.261719 70.789062 C 68.304688 70.789062 68.34375 70.785156 68.378906 70.78125 L 68.386719 70.859375 L 68.464844 70.855469 L 68.675781 73.199219 C 68.925781 73.171875 69.152344 73.132812 69.375 73.078125 C 69.617188 73.015625 69.859375 72.933594 70.121094 72.828125 C 70.445312 72.683594 70.722656 72.53125 70.980469 72.359375 C 71.238281 72.183594 71.480469 71.984375 71.734375 71.734375 C 71.984375 71.480469 72.183594 71.238281 72.359375 70.980469 C 72.53125 70.722656 72.683594 70.445312 72.828125 70.121094 C 72.964844 69.78125 73.0625 69.472656 73.125 69.15625 C 73.1875 68.863281 73.21875 68.566406 73.226562 68.230469 L 70.949219 68.226562 C 70.941406 68.398438 70.925781 68.550781 70.894531 68.699219 C 70.859375 68.875 70.804688 69.042969 70.730469 69.226562 L 70.730469 69.230469 C 70.648438 69.410156 70.566406 69.5625 70.46875 69.707031 C 70.375 69.851562 70.261719 69.984375 70.125 70.125 C 70.003906 70.242188 69.890625 70.339844 69.765625 70.429688 C 69.664062 70.5 69.554688 70.566406 69.433594 70.632812 L 69.9375 71.664062 C 70.121094 71.566406 70.28125 71.46875 70.433594 71.359375 C 70.605469 71.238281 70.765625 71.101562 70.9375 70.9375 C 71.125 70.738281 71.28125 70.554688 71.417969 70.355469 C 71.550781 70.15625 71.667969 69.945312 71.777344 69.695312 Z M 71.921875 69.757812 "/><path style=" stroke:none;fill-rule:nonzero;fill:#f5e49c;fill-opacity:1;" d="M 58.625 72.253906 L 55.722656 72.253906 L 55.722656 70.792969 L 60.285156 70.792969 L 60.285156 73.386719 L 54.289062 73.386719 L 54.289062 70.949219 L 47.910156 70.949219 L 47.910156 73.226562 L 52.15625 73.226562 L 52.15625 72.082031 L 49.414062 72.082031 L 49.414062 71.921875 L 52.316406 71.921875 L 52.316406 73.386719 L 47.75 73.386719 L 47.75 70.792969 L 54.367188 70.792969 L 54.367188 70.871094 L 54.445312 70.871094 L 54.445312 73.226562 L 60.128906 73.226562 L 60.128906 70.949219 L 55.878906 70.949219 L 55.878906 72.097656 L 58.625 72.097656 Z M 58.625 72.253906 "/><path style=" stroke:none;fill-rule:nonzero;fill:#f5e49c;fill-opacity:1;" d="M 44.5 72.253906 L 41.597656 72.253906 L 41.597656 70.792969 L 46.164062 70.792969 L 46.164062 73.386719 L 40.164062 73.386719 L 40.164062 70.949219 L 33.785156 70.949219 L 33.785156 73.226562 L 38.035156 73.226562 L 38.035156 72.082031 L 35.289062 72.082031 L 35.289062 71.921875 L 38.191406 71.921875 L 38.191406 73.386719 L 33.628906 73.386719 L 33.628906 70.792969 L 40.242188 70.792969 L 40.242188 70.871094 L 40.320312 70.871094 L 40.320312 73.226562 L 46.007812 73.226562 L 46.007812 70.949219 L 41.757812 70.949219 L 41.757812 72.097656 L 44.5 72.097656 Z M 44.5 72.253906 "/><path style=" stroke:none;fill-rule:nonzero;fill:#f5e49c;fill-opacity:1;" d="M 30.378906 72.253906 L 27.476562 72.253906 L 27.476562 70.792969 L 32.039062 70.792969 L 32.039062 73.386719 L 26.039062 73.386719 L 26.039062 70.949219 L 19.664062 70.949219 L 19.664062 73.226562 L 23.910156 73.226562 L 23.910156 72.082031 L 21.167969 72.082031 L 21.167969 71.921875 L 24.070312 71.921875 L 24.070312 73.386719 L 19.503906 73.386719 L 19.503906 70.792969 L 26.121094 70.792969 L 26.121094 70.871094 L 26.199219 70.871094 L 26.199219 73.226562 L 31.882812 73.226562 L 31.882812 70.949219 L 27.632812 70.949219 L 27.632812 72.097656 L 30.378906 72.097656 Z M 30.378906 72.253906 "/><path style=" stroke:none;fill-rule:nonzero;fill:#f5e49c;fill-opacity:1;" d="M 16.253906 72.253906 L 13.355469 72.253906 L 13.355469 70.792969 L 17.917969 70.792969 L 17.917969 73.386719 L 11.917969 73.386719 L 11.917969 70.949219 L 7.519531 70.949219 C 7.316406 70.945312 7.136719 70.929688 6.964844 70.894531 C 6.789062 70.859375 6.621094 70.804688 6.433594 70.730469 L 6.429688 70.730469 C 6.378906 70.707031 6.324219 70.683594 6.273438 70.65625 C 6.246094 70.644531 6.21875 70.628906 6.191406 70.613281 L 5.050781 72.585938 C 5.117188 72.625 5.1875 72.660156 5.257812 72.695312 C 5.347656 72.738281 5.441406 72.78125 5.542969 72.828125 C 5.882812 72.964844 6.195312 73.0625 6.507812 73.128906 C 6.824219 73.191406 7.148438 73.222656 7.519531 73.230469 L 9.789062 73.226562 L 9.789062 72.082031 L 7.519531 72.082031 C 7.433594 72.082031 7.355469 72.078125 7.277344 72.074219 C 7.199219 72.070312 7.117188 72.0625 7.039062 72.050781 L 7.054688 71.894531 C 7.136719 71.90625 7.210938 71.914062 7.289062 71.917969 C 7.363281 71.921875 7.441406 71.921875 7.519531 71.925781 L 9.945312 71.921875 L 9.945312 73.386719 C 9.652344 73.386719 7.601562 73.414062 7.519531 73.386719 C 7.136719 73.378906 6.804688 73.347656 6.480469 73.28125 C 6.152344 73.214844 5.832031 73.113281 5.480469 72.972656 L 5.480469 72.96875 C 5.382812 72.929688 5.285156 72.882812 5.1875 72.835938 C 5.09375 72.789062 5 72.738281 4.902344 72.683594 L 4.832031 72.644531 L 6.132812 70.398438 L 6.199219 70.4375 C 6.253906 70.46875 6.300781 70.492188 6.34375 70.515625 C 6.394531 70.539062 6.441406 70.5625 6.492188 70.585938 C 6.671875 70.65625 6.832031 70.707031 6.996094 70.742188 C 7.160156 70.773438 7.328125 70.789062 7.519531 70.792969 L 11.996094 70.792969 L 11.996094 70.871094 L 12.074219 70.871094 L 12.074219 73.226562 L 17.761719 73.226562 L 17.761719 70.949219 L 13.511719 70.949219 L 13.511719 72.097656 L 16.253906 72.097656 Z M 16.253906 72.253906 "/><path style=" stroke:none;fill-rule:nonzero;fill:#f5e49c;fill-opacity:1;" d="M 3.496094 68.992188 C 3.464844 68.84375 3.445312 68.707031 3.429688 68.570312 C 3.414062 68.429688 3.40625 68.292969 3.40625 68.140625 C 3.40625 68.140625 3.40625 66.25 3.40625 66.050781 L 4.867188 66.050781 L 4.867188 68.140625 C 4.871094 68.335938 4.886719 68.5 4.917969 68.667969 C 4.953125 68.828125 5.003906 68.988281 5.078125 69.167969 C 5.113281 69.257812 5.152344 69.335938 5.199219 69.414062 C 5.242188 69.492188 5.289062 69.570312 5.34375 69.652344 L 5.386719 69.714844 L 3.261719 71.199219 L 3.21875 71.132812 C 3.109375 70.976562 3.015625 70.828125 2.929688 70.671875 C 2.84375 70.515625 2.765625 70.359375 2.691406 70.183594 L 2.691406 70.179688 C 2.546875 69.828125 2.445312 69.511719 2.378906 69.183594 C 2.3125 68.855469 2.28125 68.523438 2.277344 68.144531 C 2.238281 68.03125 2.277344 65.023438 2.277344 64.613281 L 4.710938 64.613281 L 4.710938 58.238281 L 2.433594 58.238281 L 2.433594 62.484375 L 3.578125 62.484375 L 3.578125 59.742188 L 3.738281 59.742188 L 3.738281 62.644531 L 2.277344 62.644531 L 2.277344 58.078125 L 4.867188 58.078125 L 4.867188 64.695312 L 4.789062 64.695312 L 4.789062 64.773438 L 2.433594 64.773438 L 2.433594 68.140625 C 2.4375 68.511719 2.46875 68.835938 2.535156 69.152344 C 2.597656 69.46875 2.695312 69.777344 2.835938 70.121094 C 2.910156 70.289062 2.984375 70.445312 3.066406 70.59375 C 3.140625 70.722656 3.214844 70.851562 3.304688 70.980469 L 5.171875 69.675781 C 5.128906 69.613281 5.09375 69.554688 5.058594 69.492188 C 5.015625 69.410156 4.972656 69.324219 4.933594 69.230469 L 4.929688 69.226562 C 4.855469 69.042969 4.800781 68.871094 4.765625 68.695312 C 4.730469 68.523438 4.714844 68.34375 4.710938 68.144531 L 4.710938 66.207031 L 3.5625 66.207031 L 3.5625 68.140625 C 3.5625 68.285156 3.570312 68.417969 3.585938 68.554688 C 3.597656 68.683594 3.621094 68.816406 3.648438 68.960938 Z M 3.496094 68.992188 "/><path style=" stroke:none;fill-rule:nonzero;fill:#f5e49c;fill-opacity:1;" d="M 3.40625 54.828125 L 3.40625 51.929688 L 4.867188 51.929688 L 4.867188 56.492188 L 2.277344 56.492188 C 2.273438 54.492188 2.273438 52.492188 2.277344 50.492188 L 4.710938 50.492188 L 4.710938 44.113281 L 2.433594 44.113281 L 2.433594 48.363281 L 3.578125 48.363281 L 3.578125 45.621094 L 3.738281 45.621094 L 3.738281 48.519531 L 2.277344 48.519531 L 2.277344 43.957031 L 4.867188 43.957031 L 4.867188 50.570312 L 4.789062 50.570312 L 4.789062 50.648438 L 2.433594 50.648438 L 2.433594 56.335938 L 4.710938 56.335938 L 4.710938 52.085938 L 3.5625 52.085938 L 3.5625 54.828125 Z M 3.40625 54.828125 "/><path style=" stroke:none;fill-rule:nonzero;fill:#f5e49c;fill-opacity:1;" d="M 3.40625 40.707031 L 3.40625 37.804688 L 4.867188 37.804688 L 4.867188 42.367188 L 2.277344 42.367188 L 2.277344 36.371094 L 4.710938 36.371094 L 4.710938 29.992188 L 2.433594 29.992188 L 2.433594 34.242188 L 3.578125 34.242188 L 3.578125 31.496094 L 3.738281 31.496094 L 3.738281 34.398438 L 2.277344 34.398438 L 2.277344 29.832031 L 4.867188 29.832031 L 4.867188 36.449219 L 4.789062 36.449219 L 4.789062 36.527344 L 2.433594 36.527344 L 2.433594 42.210938 L 4.710938 42.210938 L 4.710938 37.960938 L 3.5625 37.960938 L 3.5625 40.707031 Z M 3.40625 40.707031 "/><path style=" stroke:none;fill-rule:nonzero;fill:#f5e49c;fill-opacity:1;" d="M 3.40625 26.582031 L 3.40625 23.683594 L 4.867188 23.683594 L 4.867188 28.246094 L 2.277344 28.246094 L 2.277344 22.246094 L 4.710938 22.246094 L 4.710938 15.867188 L 2.433594 15.867188 L 2.433594 20.117188 L 3.578125 20.117188 L 3.578125 17.375 L 3.738281 17.375 L 3.738281 20.273438 L 2.277344 20.273438 L 2.277344 15.710938 L 4.867188 15.710938 L 4.867188 22.324219 L 4.789062 22.324219 L 4.789062 22.402344 L 2.433594 22.402344 L 2.433594 28.089844 L 4.710938 28.089844 L 4.710938 23.839844 L 3.5625 23.839844 L 3.5625 26.582031 Z M 3.40625 26.582031 "/><path style=" stroke:none;fill-rule:nonzero;fill:#f5e49c;fill-opacity:1;" d="M 3.40625 12.460938 L 3.40625 9.558594 L 4.867188 9.558594 L 4.867188 14.125 L 2.277344 14.125 L 2.277344 8.125 L 4.710938 8.125 L 4.710938 7.519531 C 4.714844 7.316406 4.730469 7.136719 4.765625 6.964844 C 4.800781 6.789062 4.855469 6.617188 4.929688 6.433594 L 4.933594 6.429688 C 5.011719 6.25 5.09375 6.097656 5.191406 5.953125 C 5.289062 5.8125 5.398438 5.679688 5.535156 5.539062 L 5.539062 5.535156 C 5.679688 5.398438 5.8125 5.289062 5.953125 5.191406 C 6.097656 5.09375 6.25 5.011719 6.429688 4.933594 L 6.433594 4.929688 C 6.578125 4.871094 6.707031 4.828125 6.839844 4.792969 C 6.953125 4.765625 7.066406 4.746094 7.191406 4.730469 L 6.988281 2.460938 C 6.738281 2.488281 6.511719 2.527344 6.289062 2.585938 C 6.042969 2.644531 5.804688 2.726562 5.542969 2.835938 C 5.214844 2.976562 4.941406 3.128906 4.679688 3.300781 C 4.421875 3.476562 4.179688 3.679688 3.925781 3.925781 C 3.679688 4.179688 3.476562 4.421875 3.300781 4.679688 C 3.128906 4.941406 2.976562 5.214844 2.835938 5.542969 L 2.804688 5.617188 L 3.871094 6.03125 L 3.890625 5.988281 C 4.003906 5.738281 4.117188 5.523438 4.253906 5.324219 C 4.386719 5.121094 4.542969 4.933594 4.738281 4.738281 C 4.886719 4.589844 5.027344 4.46875 5.179688 4.355469 C 5.328125 4.246094 5.484375 4.144531 5.667969 4.046875 L 5.746094 4.183594 C 5.566406 4.28125 5.414062 4.375 5.269531 4.484375 C 5.128906 4.589844 4.992188 4.707031 4.847656 4.847656 C 4.664062 5.039062 4.515625 5.21875 4.382812 5.410156 C 4.253906 5.601562 4.140625 5.808594 4.035156 6.050781 L 4.011719 6.105469 L 3.992188 6.160156 L 3.960938 6.234375 L 2.597656 5.707031 L 2.660156 5.554688 L 2.691406 5.480469 C 2.839844 5.144531 2.992188 4.859375 3.171875 4.59375 C 3.351562 4.328125 3.558594 4.078125 3.8125 3.816406 L 3.816406 3.8125 C 4.078125 3.558594 4.324219 3.351562 4.59375 3.171875 C 4.859375 2.992188 5.144531 2.839844 5.480469 2.691406 C 5.75 2.578125 6 2.496094 6.25 2.433594 C 6.5 2.367188 6.757812 2.324219 7.050781 2.296875 L 7.128906 2.289062 L 7.359375 4.871094 L 7.285156 4.878906 C 7.136719 4.894531 7.007812 4.914062 6.878906 4.945312 C 6.753906 4.976562 6.628906 5.019531 6.492188 5.074219 C 6.324219 5.152344 6.179688 5.230469 6.042969 5.320312 C 5.90625 5.414062 5.78125 5.519531 5.648438 5.648438 C 5.519531 5.78125 5.414062 5.90625 5.320312 6.042969 C 5.230469 6.179688 5.152344 6.324219 5.074219 6.492188 C 5.003906 6.671875 4.953125 6.832031 4.917969 6.996094 C 4.886719 7.160156 4.871094 7.328125 4.867188 7.519531 L 4.867188 8.203125 L 4.789062 8.203125 L 4.789062 8.28125 L 2.433594 8.28125 L 2.433594 13.964844 L 4.710938 13.964844 L 4.710938 9.714844 L 3.5625 9.714844 L 3.5625 12.460938 Z M 3.40625 12.460938 "/><path style=" stroke:none;fill-rule:evenodd;fill:#96001a;fill-opacity:1;" d="M 10.472656 6.910156 L 65.1875 6.910156 C 67.148438 6.910156 68.75 8.511719 68.75 10.472656 L 68.75 65.1875 C 68.75 67.148438 67.148438 68.75 65.1875 68.75 L 10.472656 68.75 C 8.511719 68.75 6.910156 67.148438 6.910156 65.1875 L 6.910156 10.472656 C 6.910156 8.511719 8.511719 6.910156 10.472656 6.910156 Z M 10.472656 6.910156 "/><path style=" stroke:none;fill-rule:nonzero;fill:#f5e49c;fill-opacity:1;" d="M 10.472656 6.59375 L 65.1875 6.59375 C 66.253906 6.59375 67.222656 7.03125 67.925781 7.734375 C 68.628906 8.4375 69.066406 9.40625 69.066406 10.472656 L 69.066406 65.1875 C 69.066406 66.253906 68.628906 67.222656 67.925781 67.925781 C 67.222656 68.628906 66.253906 69.066406 65.1875 69.066406 L 10.472656 69.066406 C 9.40625 69.066406 8.4375 68.628906 7.734375 67.925781 C 7.03125 67.222656 6.59375 66.253906 6.59375 65.1875 L 6.59375 10.472656 C 6.59375 9.40625 7.03125 8.4375 7.734375 7.734375 C 8.4375 7.03125 9.40625 6.59375 10.472656 6.59375 Z M 65.1875 7.226562 L 10.472656 7.226562 C 9.578125 7.226562 8.769531 7.589844 8.179688 8.179688 C 7.589844 8.769531 7.226562 9.578125 7.226562 10.472656 L 7.226562 65.1875 C 7.226562 66.082031 7.589844 66.894531 8.179688 67.480469 C 8.769531 68.070312 9.578125 68.4375 10.472656 68.4375 L 65.1875 68.4375 C 66.082031 68.4375 66.894531 68.070312 67.480469 67.480469 C 68.070312 66.894531 68.4375 66.082031 68.4375 65.1875 L 68.4375 10.472656 C 68.4375 9.578125 68.070312 8.769531 67.480469 8.179688 C 66.894531 7.589844 66.082031 7.226562 65.1875 7.226562 Z M 65.1875 7.226562 "/><g clip-rule="nonzero" clip-path="url(#95b0a37441)"><path style=" stroke:none;fill-rule:nonzero;fill:#e7bc49;fill-opacity:1;" d="M 35.316406 45.144531 L 53.359375 51.390625 L 55.671875 52.414062 C 58.164062 48.804688 59.625 44.429688 59.625 39.710938 C 59.625 27.355469 49.609375 17.339844 37.257812 17.339844 C 24.902344 17.339844 14.886719 27.355469 14.886719 39.710938 C 14.886719 44.027344 16.109375 48.058594 18.226562 51.476562 L 19.238281 50.789062 Z M 35.316406 45.144531 "/></g><g clip-rule="nonzero" clip-path="url(#a4222f2f28)"><path style=" stroke:none;fill-rule:nonzero;fill:#000000;fill-opacity:1;" d="M 19.238281 50.789062 L 35.316406 45.144531 L 53.359375 51.390625 L 67.488281 57.664062 L 9.144531 57.664062 Z M 19.238281 50.789062 "/></g><path style=" stroke:none;fill-rule:nonzero;fill:#ffffff;fill-opacity:1;" d="M 53.359375 51.390625 L 53.167969 51.285156 L 53.035156 51.214844 L 52.902344 51.140625 L 52.636719 50.988281 C 52.460938 50.890625 52.28125 50.792969 52.105469 50.6875 C 51.753906 50.480469 51.402344 50.28125 51.050781 50.066406 L 50.523438 49.746094 L 49.738281 49.253906 L 49.476562 49.085938 L 48.957031 48.75 L 48.433594 48.40625 L 48.175781 48.234375 L 47.914062 48.058594 L 47.398438 47.707031 L 46.878906 47.351562 C 46.707031 47.234375 46.535156 47.113281 46.363281 46.992188 C 46.191406 46.871094 46.019531 46.75 45.847656 46.628906 C 45.164062 46.140625 44.480469 45.640625 43.800781 45.132812 C 43.117188 44.625 42.441406 44.109375 41.765625 43.582031 C 41.429688 43.316406 41.09375 43.050781 40.757812 42.78125 C 40.421875 42.511719 40.085938 42.238281 39.757812 41.964844 L 39.691406 41.925781 L 39.695312 41.925781 C 39.699219 41.929688 39.699219 41.925781 39.699219 41.925781 L 39.691406 41.925781 C 39.691406 41.921875 39.683594 41.917969 39.679688 41.917969 C 39.667969 41.910156 39.65625 41.902344 39.644531 41.894531 C 39.621094 41.875 39.597656 41.855469 39.570312 41.835938 C 39.519531 41.789062 39.46875 41.738281 39.414062 41.6875 C 39.3125 41.578125 39.207031 41.453125 39.109375 41.324219 L 39.035156 41.230469 L 38.957031 41.125 L 38.9375 41.097656 L 38.925781 41.082031 C 38.925781 41.078125 38.929688 41.085938 38.929688 41.085938 L 38.925781 41.082031 L 38.925781 41.078125 L 38.917969 41.070312 L 38.871094 41.011719 L 38.828125 40.953125 L 38.804688 40.921875 L 38.777344 40.894531 L 38.679688 40.785156 C 38.644531 40.75 38.605469 40.714844 38.570312 40.683594 C 38.5625 40.675781 38.554688 40.667969 38.542969 40.660156 L 38.515625 40.636719 L 38.460938 40.59375 C 38.421875 40.566406 38.382812 40.542969 38.34375 40.519531 C 38.183594 40.425781 38.011719 40.378906 37.84375 40.371094 C 37.675781 40.363281 37.515625 40.402344 37.371094 40.445312 C 37.335938 40.457031 37.304688 40.46875 37.269531 40.476562 L 37.21875 40.496094 L 37.195312 40.5 L 37.171875 40.507812 C 37.113281 40.527344 37.050781 40.539062 36.988281 40.550781 C 36.863281 40.574219 36.738281 40.582031 36.609375 40.582031 C 36.484375 40.582031 36.355469 40.570312 36.230469 40.546875 C 36.195312 40.542969 36.167969 40.535156 36.136719 40.53125 L 36.035156 40.507812 C 35.941406 40.488281 35.859375 40.488281 35.78125 40.492188 C 35.628906 40.496094 35.484375 40.519531 35.34375 40.542969 L 34.933594 40.621094 C 34.800781 40.648438 34.667969 40.671875 34.546875 40.679688 C 34.488281 40.683594 34.429688 40.679688 34.390625 40.675781 L 34.378906 40.671875 L 34.375 40.671875 L 34.347656 40.644531 C 34.332031 40.632812 34.316406 40.621094 34.300781 40.609375 C 34.285156 40.601562 34.269531 40.59375 34.257812 40.585938 C 34.144531 40.527344 34.054688 40.515625 33.96875 40.507812 C 33.882812 40.503906 33.804688 40.507812 33.730469 40.519531 C 33.652344 40.527344 33.578125 40.542969 33.503906 40.558594 C 33.464844 40.570312 33.429688 40.578125 33.394531 40.589844 L 33.335938 40.605469 L 33.277344 40.625 L 33.234375 40.640625 L 33.1875 40.683594 L 32.152344 41.6875 C 31.808594 42.015625 31.460938 42.34375 31.113281 42.671875 L 30.070312 43.636719 L 29.542969 44.109375 C 29.367188 44.265625 29.191406 44.421875 29.015625 44.578125 C 28.308594 45.191406 27.597656 45.796875 26.878906 46.367188 C 26.519531 46.660156 26.15625 46.9375 25.796875 47.214844 C 25.613281 47.355469 25.433594 47.484375 25.25 47.621094 L 24.976562 47.820312 L 24.699219 48.015625 C 23.964844 48.53125 23.222656 49.011719 22.46875 49.441406 C 21.714844 49.867188 20.949219 50.234375 20.175781 50.511719 C 19.863281 50.621094 19.550781 50.714844 19.238281 50.789062 L 23.054688 50.355469 C 23.054688 50.355469 23.527344 51.925781 24.265625 51.925781 C 25.003906 51.925781 28.375 49.777344 28.375 49.777344 L 27.808594 51.925781 L 30.023438 50.628906 L 30.613281 51.808594 L 33.785156 49.570312 L 34.15625 51.925781 L 35.960938 50.386719 L 37.050781 51.648438 L 37.882812 49.6875 L 40.429688 51.691406 L 40.210938 50.160156 L 42.351562 52.632812 L 41.839844 50.546875 L 43.898438 52.042969 L 42.792969 50.277344 L 46.414062 52.089844 L 44.878906 49.53125 L 48.476562 51.808594 L 47.324219 49.585938 Z M 53.359375 51.390625 "/><g clip-rule="nonzero" clip-path="url(#fb0897be62)"><path style=" stroke:none;fill-rule:nonzero;fill:#05040c;fill-opacity:1;" d="M 58.542969 26.164062 C 44.515625 27.71875 29.996094 27.71875 15.96875 26.164062 L 12.671875 25.800781 L 13.816406 27.242188 C 14.214844 27.75 14.8125 28.078125 15.480469 28.15625 C 15.484375 28.15625 15.484375 28.15625 15.488281 28.15625 L 16.679688 29.824219 C 16.976562 29.863281 17.273438 29.894531 17.570312 29.933594 L 18.121094 30.566406 C 18.40625 30.890625 18.824219 31.101562 19.28125 31.148438 L 19.292969 31.148438 C 19.878906 31.210938 20.324219 31.660156 20.324219 32.199219 L 20.324219 32.730469 C 21.816406 32.957031 23.222656 33.433594 23.222656 33.574219 L 23.222656 34.40625 C 23.222656 34.546875 23.34375 34.664062 23.492188 34.664062 L 23.59375 34.664062 L 23.570312 35.804688 C 22.449219 35.734375 21.328125 35.660156 20.210938 35.574219 L 17.574219 35.367188 L 18.988281 36.628906 C 19.316406 36.65625 19.652344 36.675781 19.984375 36.699219 L 19.984375 38.417969 L 23.515625 38.417969 L 23.117188 57.664062 L 26.730469 57.664062 L 26.332031 38.417969 L 48.179688 38.417969 L 47.78125 57.664062 L 51.394531 57.664062 L 50.996094 38.417969 L 54.367188 38.417969 L 54.367188 36.71875 C 54.753906 36.6875 55.140625 36.664062 55.527344 36.632812 L 55.589844 36.628906 L 56.9375 35.367188 L 54.300781 35.574219 C 53.183594 35.660156 52.0625 35.734375 50.941406 35.804688 L 50.917969 34.664062 L 51.019531 34.664062 C 51.167969 34.664062 51.289062 34.546875 51.289062 34.40625 L 51.289062 33.574219 C 51.289062 33.433594 52.929688 32.957031 54.425781 32.730469 L 54.425781 32.179688 C 54.425781 31.644531 54.867188 31.195312 55.449219 31.132812 C 55.453125 31.132812 55.453125 31.132812 55.457031 31.132812 C 55.808594 31.097656 56.128906 30.929688 56.339844 30.675781 L 56.957031 29.941406 C 57.25 29.902344 57.542969 29.875 57.835938 29.835938 L 57.90625 29.824219 L 59.039062 28.164062 L 59.082031 28.160156 C 59.761719 28.078125 60.378906 27.730469 60.777344 27.203125 L 61.839844 25.800781 Z M 48.230469 35.953125 C 40.945312 36.3125 33.566406 36.3125 26.28125 35.953125 L 26.253906 34.664062 L 26.355469 34.664062 C 26.503906 34.664062 26.625 34.546875 26.625 34.40625 L 26.625 33.574219 C 26.625 33.550781 26.617188 33.527344 26.613281 33.503906 C 33.6875 34.175781 40.820312 34.183594 47.894531 33.527344 C 47.890625 33.542969 47.886719 33.558594 47.886719 33.574219 L 47.886719 34.40625 C 47.886719 34.546875 48.007812 34.664062 48.15625 34.664062 L 48.257812 34.664062 Z M 48.230469 35.953125 "/></g></g></svg>