<svg xmlns="http://www.w3.org/2000/svg" width="24" height="24" viewBox="0 0 24 24" fill="none" stroke="currentColor" stroke-width="2" stroke-linecap="round" stroke-linejoin="round">
  <circle cx="12" cy="12" r="3"></circle>
  <path d="M19.4 15a1.65 1.65 0 0 0 .33 1.82l.06.06a2 2 0 1 1-2.83 2.83l-.06-.06A1.65 1.65 0 0 0 15 19.4a1.65 1.65 0 0 0-1 .6 1.65 1.65 0 0 0-.38 1l0 .1a2 2 0 1 1-4 0l0-.1a1.65 1.65 0 0 0-.38-1 1.65 1.65 0 0 0-1-.6 1.65 1.65 0 0 0-1.82.33l-.06.06a2 2 0 1 1-2.83-2.83l.06-.06A1.65 1.65 0 0 0 4.6 15a1.65 1.65 0 0 0-.6-1 1.65 1.65 0 0 0-1-.38H3a2 2 0 1 1 0-4h.1a1.65 1.65 0 0 0 1-.38 1.65 1.65 0 0 0 .6-1 1.65 1.65 0 0 0-.33-1.82l-.06-.06A2 2 0 1 1 7.24 2.5l.06.06A1.65 1.65 0 0 0 9 4.6c.34 0 .68-.12 1-.38a1.65 1.65 0 0 0 .38-1l0-.1a2 2 0 1 1 4 0l0 .1c.04.36.2.7.38 1 .32.26.66.38 1 .38a1.65 1.65 0 0 0 1.82-.33l.06-.06A2 2 0 1 1 21.5 7.24l-.06.06c-.78.78-.78 2.04 0 2.82.26.32.38.66.38 1s-.12.68-.38 1c-.26.32-.38.66-.38 1z"></path>
</svg>
